<svg width="50" height="50" viewBox="0 0 50 50" fill="none" xmlns="http://www.w3.org/2000/svg">
<path d="M35 15H16V34H35V15Z" fill="#252159"/>
<path d="M24.935 4.16699C13.4349 4.16699 4.10156 13.5003 4.10156 25.0003C4.10156 36.5003 13.4349 45.8336 24.935 45.8336C36.435 45.8336 45.7683 36.5003 45.7683 25.0003C45.7683 13.5003 36.4558 4.16699 24.935 4.16699ZM22.3308 31.3128C22.3308 32.3128 21.9142 32.7086 20.8515 32.7086H18.1432C17.0807 32.7086 16.6641 32.3128 16.6641 31.3128V18.6878C16.6641 17.6878 17.0807 17.2919 18.1432 17.2919H20.8307C21.8932 17.2919 22.3098 17.6878 22.3098 18.6878V31.3128H22.3308ZM33.3307 31.3128C33.3307 32.3128 32.914 32.7086 31.8515 32.7086H29.164C28.1015 32.7086 27.6848 32.3128 27.6848 31.3128V18.6878C27.6848 17.6878 28.1015 17.2919 29.164 17.2919H31.8515C32.914 17.2919 33.3307 17.6878 33.3307 18.6878V31.3128Z" fill="#E7F3FA"/>
</svg>
