<svg width="123" height="66" viewBox="0 0 123 66" fill="none" xmlns="http://www.w3.org/2000/svg">
<path d="M117.601 10.92C116.641 18.1748 116.779 25.6067 117.44 33.0466C106.411 8.50492 77.9824 -4.32795 52.4365 1.48425C23.697 8.1566 4.58268 36.0887 0.638661 64.7859C0.637311 65.3204 1.36946 65.4384 1.42273 65.0651C6.14541 38.7851 23.2123 13.6548 48.9206 5.65352C74.4719 -2.29667 105.202 10.6781 115.181 36.8074C115.181 36.8074 115.181 36.8074 115.233 36.9685C108.545 33.4459 101.909 30.0845 94.5906 27.8352C93.5976 27.446 92.9652 29.2537 93.9582 29.643C102.737 33.7318 111.516 37.8207 119.507 43.2339C120.604 43.9454 122.177 42.9003 122.075 41.509C120.846 31.2275 121.132 21.3433 121.106 11.0267C121.058 9.26203 117.867 9.05318 117.601 10.92Z" fill="#A4BFB8"/>
</svg>
