<svg width="53" height="53" viewBox="0 0 53 53" fill="none" xmlns="http://www.w3.org/2000/svg">
<path d="M26.5003 48.362C38.6965 48.362 48.5836 38.4751 48.5836 26.2787C48.5836 14.0824 38.6965 4.19531 26.5003 4.19531C14.304 4.19531 4.41699 14.0824 4.41699 26.2787C4.41699 38.4751 14.304 48.362 26.5003 48.362Z" fill="#E7F3FA"/>
<path d="M24.7731 32.9926C25.4697 31.605 25.6918 30.1683 25.6935 28.9503C25.6927 28.717 25.6839 28.4919 25.6692 28.2763H29.783V25.8407H25.435C25.435 24.8079 25.435 23.3106 25.435 22.116C25.4358 21.2389 25.7854 20.4582 26.3597 19.8821C26.9366 19.3078 27.7166 18.9574 28.5936 18.9574C29.8064 18.9556 30.8543 19.6366 31.3879 20.6386L34 19.2523C32.9755 17.319 30.9359 16.0008 28.5936 16C25.2155 16.0008 22.4794 18.7379 22.4785 22.116C22.4785 23.3106 22.4785 24.8079 22.4785 25.8407H19.5003V28.2763H22.698C22.7214 28.4836 22.7387 28.7074 22.737 28.9503C22.7388 29.8005 22.5679 30.8068 22.1332 31.6609C21.6916 32.5202 21.0419 33.2437 19.8959 33.7434C19.2513 34.0193 18.8895 34.7132 19.0301 35.399C19.1715 36.0853 19.7778 36.5793 20.4779 36.5793C27.1448 36.5793 31.6655 36.5793 31.6655 36.5793V33.6246C31.6655 33.6246 28.8573 33.6237 24.413 33.6237C24.544 33.4155 24.6672 33.2055 24.7731 32.9926Z" fill="#252159"/>
</svg>
