<svg width="207" height="208" viewBox="0 0 207 208" fill="none" xmlns="http://www.w3.org/2000/svg">
<path d="M103.095 0.859375C46.157 0.859375 0 47.0174 0 103.954C0 160.892 46.157 207.049 103.095 207.049C160.033 207.049 206.19 160.892 206.19 103.954C206.19 47.0174 160.033 0.859375 103.095 0.859375ZM103.095 201.726C49.184 201.726 5.324 157.866 5.324 103.955C5.324 50.0434 49.184 6.18337 103.095 6.18337C157.007 6.18337 200.867 50.0434 200.867 103.955C200.866 157.866 157.006 201.726 103.095 201.726ZM181.999 61.8104C174.378 45.7054 161.344 32.6714 145.239 25.0504C64.983 -12.9266 -13.785 65.8434 24.19 146.099C31.811 162.204 44.845 175.238 60.95 182.859C141.206 220.835 219.976 142.066 181.999 61.8104ZM178.278 135.099L166.248 137.697L170.737 149.156L158.431 149.36L160.611 161.472L148.499 159.291L148.294 171.597L136.835 167.108L134.237 179.138L123.879 172.493L118.969 183.778L110.118 175.227L103.095 185.333L96.072 175.227L87.22 183.778L82.309 172.493L71.95 179.138L69.352 167.108L57.893 171.597L57.689 159.291L45.577 161.472L47.758 149.36L35.452 149.155L39.941 137.696L27.911 135.098L34.556 124.74L23.271 119.83L31.823 110.979L21.717 103.956L31.823 96.9334L23.271 88.0814L34.556 83.1704L27.911 72.8114L39.941 70.2134L35.453 58.7544L47.759 58.5494L45.578 46.4374L57.69 48.6184L57.894 36.3124L69.353 40.8014L71.951 28.7714L82.31 35.4164L87.22 24.1314L96.071 32.6824L103.094 22.5764L110.117 32.6824L118.969 24.1314L123.88 35.4164L134.239 28.7714L136.837 40.8014L148.296 36.3124L148.5 48.6184L160.613 46.4374L158.432 58.5494L170.738 58.7534L166.249 70.2124L178.279 72.8104L171.634 83.1684L182.919 88.0784L174.368 96.9294L184.474 103.952L174.368 110.975L182.919 119.827L171.634 124.738L178.278 135.099Z" fill="#262358"/>
<path d="M71.7416 143.664C72.8506 143.664 73.7912 143.942 74.5632 144.496C75.3352 145.04 75.8462 145.823 76.0963 146.845H73.079C72.818 146.301 72.3722 146.029 71.7416 146.029C71.187 146.029 70.763 146.241 70.4694 146.665C70.1867 147.079 70.0453 147.628 70.0453 148.313C70.0453 148.998 70.1867 149.552 70.4694 149.976C70.763 150.39 71.187 150.596 71.7416 150.596C72.0895 150.596 72.3613 150.536 72.5571 150.417C72.7528 150.297 72.9267 150.085 73.079 149.781H76.0963C75.8462 150.759 75.3298 151.537 74.5469 152.113C73.764 152.689 72.8289 152.977 71.7416 152.977C70.8717 152.977 70.0888 152.787 69.3929 152.407C68.7079 152.026 68.1697 151.482 67.7782 150.776C67.3977 150.069 67.2074 149.248 67.2074 148.313C67.2074 147.378 67.3977 146.562 67.7782 145.866C68.1697 145.16 68.7079 144.616 69.3929 144.235C70.0888 143.855 70.8717 143.664 71.7416 143.664ZM86.1695 148.345C86.1695 148.661 86.1478 148.954 86.1043 149.226H79.8413C79.8956 149.628 80.075 149.96 80.3795 150.221C80.6839 150.471 81.0645 150.596 81.5212 150.596C81.8691 150.596 82.1301 150.547 82.3041 150.449C82.478 150.341 82.6629 150.167 82.8586 149.927H85.876C85.615 150.841 85.0931 151.58 84.3102 152.146C83.5273 152.7 82.5976 152.977 81.5212 152.977C80.6513 152.977 79.8684 152.787 79.1725 152.407C78.4875 152.026 77.9493 151.482 77.5579 150.776C77.1773 150.058 76.987 149.232 76.987 148.296C76.987 147.361 77.1773 146.546 77.5579 145.85C77.9493 145.143 78.4875 144.605 79.1725 144.235C79.8576 143.855 80.635 143.664 81.5049 143.664C82.3856 143.664 83.1794 143.849 83.8861 144.219C84.5929 144.578 85.1474 145.111 85.5498 145.817C85.9629 146.524 86.1695 147.367 86.1695 148.345ZM83.2664 147.481C83.2229 147.057 83.038 146.714 82.7118 146.453C82.3856 146.182 81.9833 146.046 81.5049 146.046C81.0917 146.046 80.7329 146.182 80.4284 146.453C80.124 146.714 79.9337 147.057 79.8576 147.481H83.2664ZM90.75 145.459C91.0544 144.904 91.4295 144.469 91.8754 144.154C92.3212 143.828 92.8159 143.664 93.3596 143.664V146.502H92.6745C92.033 146.502 91.5492 146.655 91.223 146.959C90.9076 147.264 90.75 147.796 90.75 148.557V152.863H87.961V143.762H90.75V145.459ZM99.734 150.498V152.863H98.315C97.2929 152.863 96.4992 152.64 95.9337 152.195C95.3792 151.738 95.1019 150.96 95.1019 149.862V146.078H94.2538V143.762H95.1019V141.544H97.8909V143.762H99.7177V146.078H97.8909V149.862C97.8909 150.08 97.9562 150.243 98.0867 150.352C98.2171 150.449 98.4346 150.498 98.7391 150.498H99.734ZM101.398 141.577C101.398 141.109 101.556 140.718 101.871 140.402C102.187 140.087 102.573 139.929 103.029 139.929C103.486 139.929 103.872 140.087 104.187 140.402C104.503 140.718 104.66 141.109 104.66 141.577C104.66 142.033 104.503 142.419 104.187 142.735C103.872 143.05 103.486 143.208 103.029 143.208C102.573 143.208 102.187 143.05 101.871 142.735C101.556 142.419 101.398 142.033 101.398 141.577ZM104.432 143.762V152.863H101.643V143.762H104.432ZM113.75 143.208C113.293 143.208 112.907 143.05 112.592 142.735C112.276 142.419 112.119 142.033 112.119 141.577C112.119 141.109 112.276 140.718 112.592 140.402C112.907 140.087 113.293 139.929 113.75 139.929C114.206 139.929 114.592 140.087 114.908 140.402C115.223 140.718 115.381 141.109 115.381 141.577C115.381 142.033 115.223 142.419 114.908 142.735C114.592 143.05 114.206 143.208 113.75 143.208ZM109.705 143.762H115.152V152.863H112.363V146.078H109.705V152.863H106.916V146.078H106.068V143.762H106.916V143.42C106.916 142.267 107.22 141.425 107.829 140.892C108.449 140.359 109.417 140.093 110.732 140.093V142.458C110.363 142.458 110.096 142.528 109.933 142.67C109.781 142.811 109.705 143.061 109.705 143.42V143.762ZM126.116 148.345C126.116 148.661 126.095 148.954 126.051 149.226H119.788C119.842 149.628 120.022 149.96 120.326 150.221C120.631 150.471 121.011 150.596 121.468 150.596C121.816 150.596 122.077 150.547 122.251 150.449C122.425 150.341 122.61 150.167 122.805 149.927H125.823C125.562 150.841 125.04 151.58 124.257 152.146C123.474 152.7 122.544 152.977 121.468 152.977C120.598 152.977 119.815 152.787 119.119 152.407C118.434 152.026 117.896 151.482 117.505 150.776C117.124 150.058 116.934 149.232 116.934 148.296C116.934 147.361 117.124 146.546 117.505 145.85C117.896 145.143 118.434 144.605 119.119 144.235C119.804 143.855 120.582 143.664 121.452 143.664C122.332 143.664 123.126 143.849 123.833 144.219C124.54 144.578 125.094 145.111 125.497 145.817C125.91 146.524 126.116 147.367 126.116 148.345ZM123.213 147.481C123.17 147.057 122.985 146.714 122.659 146.453C122.332 146.182 121.93 146.046 121.452 146.046C121.038 146.046 120.68 146.182 120.375 146.453C120.071 146.714 119.88 147.057 119.804 147.481H123.213ZM131.382 143.664C132.545 143.664 133.437 144.094 134.057 144.953V140.794H136.846V152.863H134.057V151.542C133.382 152.499 132.491 152.977 131.382 152.977C130.631 152.977 129.936 152.782 129.294 152.39C128.663 151.999 128.163 151.45 127.794 150.743C127.424 150.036 127.239 149.232 127.239 148.329C127.239 147.427 127.424 146.622 127.794 145.915C128.163 145.208 128.663 144.659 129.294 144.268C129.936 143.866 130.631 143.664 131.382 143.664ZM132.067 146.078C131.741 146.078 131.42 146.165 131.104 146.339C130.8 146.502 130.55 146.752 130.354 147.09C130.169 147.427 130.077 147.84 130.077 148.329C130.077 148.818 130.169 149.232 130.354 149.569C130.55 149.895 130.8 150.145 131.104 150.319C131.409 150.482 131.73 150.564 132.067 150.564C132.393 150.564 132.708 150.482 133.013 150.319C133.328 150.145 133.578 149.889 133.763 149.552C133.959 149.215 134.057 148.802 134.057 148.313C134.057 147.823 133.959 147.416 133.763 147.09C133.578 146.752 133.334 146.502 133.029 146.339C132.725 146.165 132.404 146.078 132.067 146.078Z" fill="#262358"/>
<path d="M55.4408 65.2306H73.0192V66.3256H69.8493V104.479H73.0192V105.574H55.4408V104.479H58.6107V66.3256H55.4408V65.2306ZM93.218 104.94C95.1391 104.94 96.8297 104.422 98.2898 103.384C99.7883 102.347 100.537 100.791 100.537 98.7158C100.537 96.6026 99.7306 94.9888 98.1169 93.8746C96.5416 92.7603 94.2746 91.7997 91.3161 90.9929C88.396 90.1476 86.2635 89.4175 84.9187 88.8028C83.6124 88.188 82.3636 87.3811 81.1725 86.3822C78.7903 84.3842 77.5992 81.2912 77.5992 77.1031C77.5992 73.6835 78.8095 70.7442 81.2302 68.2851C83.6892 65.8261 87.032 64.5966 91.2585 64.5966C93.2948 64.5966 95.4081 64.904 97.5982 65.5187C99.8267 66.0951 101.21 66.3832 101.748 66.3832C102.286 66.3832 102.766 65.999 103.189 65.2306H103.823L104.226 76.8726H103.304C101.46 73.5298 99.5193 70.8595 97.4829 68.8615C95.4849 66.8251 93.2948 65.8069 90.9126 65.8069C88.5689 65.8069 86.7438 66.364 85.4374 67.4783C84.1311 68.5541 83.4779 70.0142 83.4779 71.8584C83.4779 73.6643 84.2463 75.0667 85.7832 76.0657C87.3586 77.0263 89.2797 77.8139 91.5466 78.4287C93.8136 79.0435 95.2928 79.4661 95.9844 79.6966C96.7145 79.9272 97.5982 80.2538 98.6356 80.6764C99.7114 81.0606 100.576 81.4833 101.229 81.9444C101.921 82.367 102.632 82.9241 103.362 83.6157C104.13 84.2689 104.726 84.999 105.148 85.8058C106.186 87.6501 106.704 89.8402 106.704 92.3761C106.704 96.5257 105.398 99.8685 102.785 102.404C100.211 104.902 96.8105 106.151 92.584 106.151C90.3939 106.151 87.8773 105.862 85.034 105.286C82.2292 104.71 80.673 104.422 80.3657 104.422C79.8277 104.422 79.309 104.998 78.8095 106.151H78.0027L77.4263 92.4337H78.4061C80.0967 95.7765 82.2484 98.6966 84.8611 101.194C87.5123 103.692 90.2979 104.94 93.218 104.94ZM137.356 87.7654V83.5005C137.356 76.4691 137.011 72.0313 136.319 70.1871C135.551 68.0738 134.456 66.7675 133.034 66.268C132.227 65.9606 131.247 65.8069 130.095 65.8069C128.942 65.8069 127.943 65.9606 127.098 66.268C126.291 66.5753 125.618 67.1133 125.08 67.8817C124.543 68.6502 124.101 69.457 123.755 70.3023C123.448 71.1476 123.198 72.3387 123.006 73.8756C122.775 76.1041 122.66 79.3893 122.66 83.731V87.8806C122.66 92.5682 122.833 95.911 123.179 97.9089C123.563 99.8685 124.024 101.271 124.562 102.116C125.753 103.999 127.597 104.94 130.095 104.94C133.13 104.94 135.09 103.672 135.973 101.136C136.895 98.5621 137.356 94.1051 137.356 87.7654ZM129.979 106.151C123.563 106.151 118.76 104.422 115.571 100.964C112.42 97.4671 110.845 92.4337 110.845 85.8635C110.845 79.2548 112.536 74.0677 115.917 70.3023C119.336 66.4985 124.158 64.5966 130.383 64.5966C136.607 64.5966 141.295 66.4024 144.445 70.0142C147.635 73.5875 149.229 78.6784 149.229 85.2871C149.229 91.8958 147.615 97.0252 144.388 100.675C141.199 104.325 136.396 106.151 129.979 106.151Z" fill="#262358"/>
<path d="M90.1851 120.024C90.1851 122.799 89.5771 124.938 88.361 126.44C87.1593 127.928 85.4855 128.672 83.3395 128.672C81.8374 128.672 80.6571 128.386 79.7988 127.813C78.9547 127.241 78.5327 126.497 78.5327 125.581C78.5327 125.009 78.7043 124.516 79.0477 124.101C79.4053 123.672 79.8703 123.457 80.4425 123.457C81.0291 123.457 81.4869 123.614 81.8159 123.929C82.1593 124.23 82.331 124.594 82.331 125.024C82.331 125.438 82.2737 125.803 82.1593 126.118H81.5155C81.4154 126.333 81.3653 126.612 81.3653 126.955C81.3653 127.284 81.5155 127.584 81.8159 127.856C82.1307 128.114 82.5885 128.242 83.1893 128.242C84.1478 128.242 84.8417 127.72 85.2709 126.676C85.7144 125.632 85.9433 123.815 85.9576 121.225C85.2137 122.384 84.0835 122.963 82.567 122.963C81.2795 122.963 80.2208 122.549 79.391 121.719C78.5613 120.889 78.1464 119.752 78.1464 118.307C78.1464 116.59 78.7115 115.31 79.8417 114.466C80.9862 113.622 82.4454 113.199 84.2194 113.199C88.1965 113.199 90.1851 115.474 90.1851 120.024ZM83.8117 122.255C84.2981 122.255 84.7058 122.076 85.0348 121.719C85.3782 121.347 85.6071 120.918 85.7215 120.431C85.8503 119.931 85.9147 119.287 85.9147 118.5C85.9147 117.699 85.9075 117.148 85.8932 116.848C85.8932 116.533 85.8789 116.168 85.8503 115.753C85.8217 115.324 85.7716 115.016 85.7001 114.83C85.6285 114.63 85.5355 114.423 85.4211 114.208C85.2065 113.836 84.8131 113.65 84.2408 113.65C83.5971 113.65 83.1178 113.908 82.8031 114.423C82.5599 114.838 82.4168 115.553 82.3739 116.569C82.3596 116.926 82.3524 117.413 82.3524 118.028C82.3524 118.629 82.3524 119.094 82.3524 119.423C82.3667 119.752 82.3882 120.102 82.4168 120.474C82.4454 120.832 82.4883 121.104 82.5456 121.29C82.6171 121.476 82.7029 121.654 82.8031 121.826C82.989 122.112 83.3252 122.255 83.8117 122.255ZM97.872 128.672C95.7976 128.672 94.2168 127.971 93.1295 126.569C92.0565 125.167 91.5201 123.207 91.5201 120.689C91.5201 118.171 92.0995 116.297 93.2583 115.066C94.4171 113.822 95.9979 113.199 98.0008 113.199C100.018 113.199 101.599 113.815 102.743 115.045C103.902 116.275 104.481 118.235 104.481 120.925C104.481 123.614 103.902 125.581 102.743 126.826C101.584 128.056 99.9607 128.672 97.872 128.672ZM95.9192 120.131V122.041C95.9192 123.428 95.9264 124.408 95.9407 124.981C95.9693 125.553 96.048 126.147 96.1767 126.762C96.3055 127.377 96.5129 127.777 96.7991 127.963C97.0852 128.135 97.4214 128.221 97.8076 128.221C98.1939 128.221 98.48 128.2 98.666 128.157C98.8663 128.114 99.038 128.028 99.181 127.899C99.3384 127.756 99.4672 127.62 99.5673 127.491C99.6674 127.348 99.7461 127.134 99.8034 126.848C99.8749 126.561 99.9321 126.297 99.975 126.054C100.018 125.81 100.047 125.453 100.061 124.981C100.089 124.065 100.104 123.142 100.104 122.212V120.324C100.104 117.52 99.9965 115.71 99.7819 114.895C99.5816 114.065 98.9951 113.65 98.0222 113.65C97.0494 113.65 96.4557 114.072 96.2411 114.916C96.0265 115.76 95.9192 117.498 95.9192 120.131ZM112.122 128.672C110.048 128.672 108.467 127.971 107.38 126.569C106.307 125.167 105.77 123.207 105.77 120.689C105.77 118.171 106.35 116.297 107.509 115.066C108.667 113.822 110.248 113.199 112.251 113.199C114.268 113.199 115.849 113.815 116.994 115.045C118.152 116.275 118.732 118.235 118.732 120.925C118.732 123.614 118.152 125.581 116.994 126.826C115.835 128.056 114.211 128.672 112.122 128.672ZM110.17 120.131V122.041C110.17 123.428 110.177 124.408 110.191 124.981C110.22 125.553 110.298 126.147 110.427 126.762C110.556 127.377 110.763 127.777 111.049 127.963C111.335 128.135 111.672 128.221 112.058 128.221C112.444 128.221 112.73 128.2 112.916 128.157C113.117 128.114 113.288 128.028 113.431 127.899C113.589 127.756 113.717 127.62 113.818 127.491C113.918 127.348 113.996 127.134 114.054 126.848C114.125 126.561 114.182 126.297 114.225 126.054C114.268 125.81 114.297 125.453 114.311 124.981C114.34 124.065 114.354 123.142 114.354 122.212V120.324C114.354 117.52 114.247 115.71 114.032 114.895C113.832 114.065 113.245 113.65 112.273 113.65C111.3 113.65 110.706 114.072 110.491 114.916C110.277 115.76 110.17 117.498 110.17 120.131ZM122.102 113.993L119.742 114.294L119.699 113.865L124.549 113.199H126.287V128.049H127.961V128.457H119.849V128.049H122.102V113.993Z" fill="#262358"/>
</svg>
