<svg width="50" height="50" viewBox="0 0 50 50" fill="none" xmlns="http://www.w3.org/2000/svg">
<path d="M25.8333 46.6667C37.3392 46.6667 46.6667 37.3393 46.6667 25.8333C46.6667 14.3274 37.3392 5 25.8333 5C14.3274 5 5 14.3274 5 25.8333C5 37.3393 14.3274 46.6667 25.8333 46.6667Z" fill="#E7F3FA"/>
<path d="M23.4873 25.4222C23.2193 25.4249 22.9549 25.3589 22.7198 25.2304L20.8591 24.2459L18.9653 25.2304C18.6928 25.3639 18.3889 25.4207 18.0866 25.3944C17.7843 25.3682 17.4949 25.26 17.2494 25.0815C17.0039 24.903 16.8119 24.661 16.6938 24.3814C16.5757 24.1019 16.536 23.7954 16.5792 23.495L16.9296 21.4092L15.4195 19.9325C15.2066 19.715 15.0573 19.4435 14.9876 19.1472C14.918 18.851 14.9306 18.5414 15.0243 18.2517C15.1179 17.9622 15.289 17.7039 15.5189 17.5045C15.7489 17.3052 16.029 17.1725 16.3289 17.1209L18.4229 16.8205L19.3658 14.9183C19.5051 14.6418 19.7184 14.4096 19.9823 14.2475C20.2459 14.0854 20.5496 13.9999 20.8591 14.0005C21.1659 14.003 21.4659 14.0899 21.7266 14.2518C21.9871 14.4138 22.1979 14.6443 22.3359 14.9183L23.2703 16.8205L25.3728 17.1209C25.6728 17.1725 25.9528 17.3052 26.1828 17.5045C26.4128 17.7039 26.5838 17.9622 26.6774 18.2517C26.7711 18.5414 26.7838 18.851 26.7141 19.1472C26.6444 19.4435 26.4951 19.715 26.2823 19.9325L24.7471 21.4092L25.1058 23.495C25.1608 23.7984 25.1278 24.111 25.0111 24.3962C24.8943 24.6814 24.6984 24.9274 24.4468 25.1052C24.1703 25.3134 23.8333 25.4247 23.4873 25.4222ZM20.8591 15.6525L19.5326 18.3389L16.5708 18.7729L18.7233 20.8419L18.2228 23.7954L20.8591 22.3604L23.5123 23.7537L22.9533 20.8419L25.0974 18.7477L22.1441 18.3389L20.8591 15.6525Z" fill="#252159"/>
<path d="M23.4873 38.7547C23.2198 38.7532 22.9565 38.6874 22.7196 38.5629L20.8591 37.57L18.9653 38.5629C18.6928 38.6964 18.389 38.7532 18.0866 38.7269C17.7843 38.7007 17.4948 38.5925 17.2495 38.414C17.004 38.2355 16.8118 37.9935 16.6938 37.7139C16.5757 37.4344 16.536 37.1279 16.5792 36.8275L16.9296 34.7334L15.4195 33.2567C15.1993 33.0464 15.0433 32.778 14.9694 32.4827C14.8956 32.1874 14.907 31.877 15.0023 31.588C15.0984 31.2964 15.2731 31.0369 15.5071 30.8382C15.7412 30.6395 16.0255 30.5092 16.3289 30.4617L18.423 30.1614L19.3658 28.259C19.5028 27.9795 19.7151 27.7439 19.9791 27.5787C20.243 27.4135 20.5478 27.3255 20.8591 27.3247C21.166 27.3272 21.466 27.414 21.7265 27.576C21.9871 27.7379 22.198 27.9685 22.336 28.2424L23.2703 30.1447L25.3728 30.445C25.6728 30.4965 25.9528 30.6292 26.1828 30.8285C26.4126 31.0279 26.5838 31.2864 26.6775 31.5759C26.7711 31.8655 26.7838 32.175 26.7141 32.4714C26.6445 32.7675 26.4951 33.0392 26.2823 33.2567L24.7638 34.7334L25.1225 36.8275C25.1595 37.063 25.1456 37.3039 25.0816 37.5337C25.0178 37.7635 24.9053 37.9769 24.752 38.1595C24.5985 38.3422 24.4078 38.4897 24.1925 38.5925C23.9771 38.6952 23.7425 38.7505 23.504 38.7547H23.4873ZM20.8591 28.9765L19.5326 31.688L16.5708 32.1135L18.7233 34.191L18.2228 37.1529L20.8591 35.6845L23.5123 37.086L22.9533 34.191L25.0975 32.1052L22.144 31.688L20.8591 28.9765Z" fill="#252159"/>
<path d="M29.8774 32.823C29.5315 32.8255 29.1932 32.7207 28.9095 32.5225C28.6637 32.3398 28.473 32.0928 28.3582 31.8088C28.2434 31.5248 28.209 31.2147 28.2589 30.9123L28.6175 28.8265L27.0992 27.3415C26.8885 27.1238 26.7412 26.8528 26.6729 26.5578C26.6045 26.2627 26.6179 25.9547 26.7114 25.6665C26.8049 25.3785 26.9749 25.1212 27.2034 24.9225C27.432 24.7237 27.7102 24.5908 28.0085 24.5382L30.111 24.1795L31.0454 22.2772C31.187 22.0082 31.3994 21.7828 31.6597 21.6257C31.9199 21.4685 32.2182 21.3855 32.5222 21.3855C32.8262 21.3855 33.1244 21.4685 33.3847 21.6257C33.645 21.7828 33.8574 22.0082 33.9989 22.2772L34.9334 24.1795L37.0359 24.4882C37.345 24.5348 37.635 24.6675 37.8725 24.8712C38.11 25.0747 38.2855 25.341 38.379 25.6395C38.4675 25.9293 38.4755 26.2377 38.402 26.5317C38.3285 26.8257 38.1764 27.0942 37.9619 27.3082L36.4434 28.7932L36.8022 30.879C36.8567 31.188 36.823 31.5062 36.705 31.7968C36.5869 32.0875 36.3892 32.3392 36.1347 32.5225C35.885 32.701 35.5909 32.8072 35.2847 32.8292C34.9785 32.8513 34.6722 32.7885 34.3994 32.6477L32.5389 31.6883L30.6617 32.6728C30.4162 32.7855 30.147 32.8372 29.8774 32.823ZM32.5389 23.0532L31.254 25.7397L28.2922 26.1735L30.453 28.2258L29.9442 31.1793L32.5389 29.761L35.192 31.1543L34.6497 28.2258L36.8022 26.1317L33.8404 25.7397L32.5389 23.0532Z" fill="#252159"/>
</svg>
