<svg width="50" height="50" viewBox="0 0 50 50" fill="none" xmlns="http://www.w3.org/2000/svg">
<path d="M25.8333 46.6667C37.3392 46.6667 46.6667 37.3393 46.6667 25.8333C46.6667 14.3274 37.3392 5 25.8333 5C14.3274 5 5 14.3274 5 25.8333C5 37.3393 14.3274 46.6667 25.8333 46.6667Z" fill="#E7F3FA"/>
<path d="M36.125 29.7918H35.5833V26.273C35.5833 25.8595 35.4107 25.4623 35.106 25.1695L31.724 21.9175C31.4193 21.6245 31.0063 21.4585 30.5763 21.4585H29.0833V19.896C29.0833 19.0333 28.3555 18.3335 27.4583 18.3335H18.7917C17.8945 18.3335 17.1667 19.0333 17.1667 19.896V21.4585H15.2708C15.1219 21.4585 15 21.5756 15 21.7188V22.2396C15 22.383 15.1219 22.5001 15.2708 22.5001H24.4792C24.6282 22.5001 24.75 22.6173 24.75 22.7605V23.2813C24.75 23.4246 24.6282 23.5418 24.4792 23.5418H16.3542C16.2052 23.5418 16.0833 23.659 16.0833 23.8021V24.323C16.0833 24.4663 16.2052 24.5835 16.3542 24.5835H23.3958C23.5448 24.5835 23.6667 24.7006 23.6667 24.8438V25.3646C23.6667 25.508 23.5448 25.6251 23.3958 25.6251H15.2708C15.1219 25.6251 15 25.7423 15 25.8855V26.4063C15 26.5496 15.1219 26.6668 15.2708 26.6668H22.3125C22.4615 26.6668 22.5833 26.784 22.5833 26.9271V27.448C22.5833 27.5913 22.4615 27.7085 22.3125 27.7085H17.1667V31.8751C17.1667 33.6005 18.6223 35.0001 20.4167 35.0001C22.211 35.0001 23.6667 33.6005 23.6667 31.8751H28C28 33.6005 29.4557 35.0001 31.25 35.0001C33.0443 35.0001 34.5 33.6005 34.5 31.8751H36.125C36.423 31.8751 36.6667 31.6408 36.6667 31.3543V30.3126C36.6667 30.0261 36.423 29.7918 36.125 29.7918ZM20.4167 33.4376C19.5195 33.4376 18.7917 32.7378 18.7917 31.8751C18.7917 31.0125 19.5195 30.3126 20.4167 30.3126C21.3138 30.3126 22.0417 31.0125 22.0417 31.8751C22.0417 32.7378 21.3138 33.4376 20.4167 33.4376ZM31.25 33.4376C30.3528 33.4376 29.625 32.7378 29.625 31.8751C29.625 31.0125 30.3528 30.3126 31.25 30.3126C32.1472 30.3126 32.875 31.0125 32.875 31.8751C32.875 32.7378 32.1472 33.4376 31.25 33.4376ZM33.9583 26.6668H29.0833V23.021H30.5763L33.9583 26.273V26.6668Z" fill="#252159"/>
</svg>
