<svg width="307" height="34" viewBox="0 0 307 34" fill="none" xmlns="http://www.w3.org/2000/svg">
<path d="M2.8 0.0996094H51.3C52.8 0.0996094 54.1 1.29961 54.1 2.79961V31.2996C54.1 32.7996 52.8 33.9996 51.3 33.9996H2.8C1.2 33.9996 0 32.7996 0 31.2996V2.79961C0 1.29961 1.2 0.0996094 2.8 0.0996094Z" fill="white"/>
<path fill-rule="evenodd" clip-rule="evenodd" d="M17.2 10.4H21.1L15.3 23.7H11.4L8.1 12.2C6.83333 11.5333 5.53333 11.0333 4.2 10.7V10.4H10.2C11 10.5 11.6 10.7 11.9 11.6L13.1 17.5L13.2 17.7L13.6 19.5L17.2 10.4ZM26.3 10.4L24 23.7H20.3L22.6 10.4H26.3ZM49.9 23.7H46.4C46.4 23.7 46.1 22.1 46 21.7H41.3C41.1 22 40.5 23.7 40.5 23.7H36.6L42.1 11.5C42.1667 11.3 42.2667 11.1333 42.4 11C42.5333 10.8667 42.7 10.7333 42.9 10.6C43.0333 10.5333 43.2 10.4667 43.4 10.4C43.6 10.4 43.8 10.4 44 10.4H46.9L49.9 23.7ZM42.3 19H45.4C45.3 18.3 44.6 15.1 44.6 15.1L44.3 14C44.1 14.5 43.8 15.3 43.8 15.3C43.8 15.3 42.7 18.2 42.3 19ZM36.8 19.3C36.8 22.1 34.3 23.8 30.4 23.8C29 23.8 27.6 23.6 26.2 23.1L26.8 20.2L27.3 20.4C27.5667 20.4667 27.8333 20.5667 28.1 20.7C28.3667 20.7667 28.6667 20.8333 29 20.9C29.2667 20.9667 29.5333 21 29.8 21C30.1333 21.0667 30.4333 21.1 30.7 21.1C31.8 21.1 33 20.7 33 19.8C33 19.2 32.4 18.8 31 18.1C29.6 17.5 27.8 16.4 27.8 14.5C27.8 11.9 30.4 10.1 34 10.1C34.3333 10.1 34.6333 10.1333 34.9 10.2C35.1667 10.2 35.4333 10.2333 35.7 10.3C35.9667 10.3 36.2667 10.3667 36.6 10.5C36.8667 10.5667 37.1333 10.6333 37.4 10.7L36.9 13.6L36.5 13.4C36.3 13.3333 36.1 13.2667 35.9 13.2C35.6333 13.1333 35.4 13.0667 35.2 13C34.9333 13 34.7 12.9667 34.5 12.9C34.2333 12.9 34 12.9 33.8 12.9C32.3 12.9 31.7 13.4 31.6 14C31.6 14.7 32.4 15.1 33.7 15.7C35.9 16.6 36.8 17.8 36.8 19.3ZM54 2.7V5.3H0V2.7C0 1.2 1.2 0 2.8 0H51.3C52.8 0 54 1.2 54 2.7ZM0 28.6H54V31.2C54 32.5 53.1 33.6 51.8 33.9H2.2C0.9 33.6 0 32.5 0 31.2L0 28.6Z" fill="white"/>
<path fill-rule="evenodd" clip-rule="evenodd" d="M17.2 10.4H21.1L15.3 23.7H11.4L8.1 12.2C6.83333 11.5333 5.53333 11.0333 4.2 10.7V10.4H10.2C11 10.5 11.6 10.7 11.9 11.6L13.1 17.5L13.2 17.7L13.6 19.5L17.2 10.4ZM26.3 10.4L24 23.7H20.3L22.6 10.4H26.3ZM49.9 23.7H46.4C46.4 23.7 46.1 22.1 46 21.7H41.3C41.1 22 40.5 23.7 40.5 23.7H36.6L42.1 11.5C42.1667 11.3 42.2667 11.1333 42.4 11C42.5333 10.8667 42.7 10.7333 42.9 10.6C43.0333 10.5333 43.2 10.4667 43.4 10.4C43.6 10.4 43.8 10.4 44 10.4H46.9L49.9 23.7ZM42.3 19H45.4C45.3 18.3 44.6 15.1 44.6 15.1L44.3 14C44.1 14.5 43.8 15.3 43.8 15.3C43.8 15.3 42.7 18.2 42.3 19ZM36.8 19.3C36.8 22.1 34.3 23.8 30.4 23.8C29 23.8 27.6 23.6 26.2 23.1L26.8 20.2L27.3 20.4C27.5667 20.4667 27.8333 20.5667 28.1 20.7C28.3667 20.7667 28.6667 20.8333 29 20.9C29.2667 20.9667 29.5333 21 29.8 21C30.1333 21.0667 30.4333 21.1 30.7 21.1C31.8 21.1 33 20.7 33 19.8C33 19.2 32.4 18.8 31 18.1C29.6 17.5 27.8 16.4 27.8 14.5C27.8 11.9 30.4 10.1 34 10.1C34.3333 10.1 34.6333 10.1333 34.9 10.2C35.1667 10.2 35.4333 10.2333 35.7 10.3C35.9667 10.3 36.2667 10.3667 36.6 10.5C36.8667 10.5667 37.1333 10.6333 37.4 10.7L36.9 13.6L36.5 13.4C36.3 13.3333 36.1 13.2667 35.9 13.2C35.6333 13.1333 35.4 13.0667 35.2 13C34.9333 13 34.7 12.9667 34.5 12.9C34.2333 12.9 34 12.9 33.8 12.9C32.3 12.9 31.7 13.4 31.6 14C31.6 14.7 32.4 15.1 33.7 15.7C35.9 16.6 36.8 17.8 36.8 19.3ZM54 2.7V5.3H0V2.7C0 1.2 1.2 0 2.8 0H51.3C52.8 0 54 1.2 54 2.7Z" fill="#1E1F71"/>
<path d="M0 31.2996C0 32.5996 0.9 33.6996 2.2 33.8996H51.8C53.1 33.6996 54.1 32.5996 54.1 31.2996V28.5996H0V31.2996Z" fill="#F3B60D"/>
<path fill-rule="evenodd" clip-rule="evenodd" d="M17.2 10.4H21.1L15.3 23.7H11.4L8.1 12.2C6.83333 11.5333 5.53333 11.0333 4.2 10.7V10.4H10.2C11 10.5 11.6 10.7 11.9 11.6L13.1 17.5L13.2 17.7L13.6 19.5L17.2 10.4ZM26.3 10.4L24 23.7H20.3L22.6 10.4H26.3ZM49.9 23.7H46.4C46.4 23.7 46.1 22.1 46 21.7H41.3C41.1 22 40.5 23.7 40.5 23.7H36.6L42.1 11.5C42.1667 11.3 42.2667 11.1333 42.4 11C42.5333 10.8667 42.7 10.7333 42.9 10.6C43.0333 10.5333 43.2 10.4667 43.4 10.4C43.6 10.4 43.8 10.4 44 10.4H46.9L49.9 23.7ZM42.3 19H45.4C45.3 18.3 44.6 15.1 44.6 15.1L44.3 14C44.1 14.5 43.8 15.3 43.8 15.3C43.8 15.3 42.7 18.2 42.3 19ZM36.8 19.3C36.8 22.1 34.3 23.8 30.4 23.8C29 23.8 27.6 23.6 26.2 23.1L26.8 20.2L27.3 20.4C27.5667 20.4667 27.8333 20.5667 28.1 20.7C28.3667 20.7667 28.6667 20.8333 29 20.9C29.2667 20.9667 29.5333 21 29.8 21C30.1333 21.0667 30.4333 21.1 30.7 21.1C31.8 21.1 33 20.7 33 19.8C33 19.2 32.4 18.8 31 18.1C29.6 17.5 27.8 16.4 27.8 14.5C27.8 11.9 30.4 10.1 34 10.1C34.3333 10.1 34.6333 10.1333 34.9 10.2C35.1667 10.2 35.4333 10.2333 35.7 10.3C35.9667 10.3 36.2667 10.3667 36.6 10.5C36.8667 10.5667 37.1333 10.6333 37.4 10.7L36.9 13.6L36.5 13.4C36.3 13.3333 36.1 13.2667 35.9 13.2C35.6333 13.1333 35.4 13.0667 35.2 13C34.9333 13 34.7 12.9667 34.5 12.9C34.2333 12.9 34 12.9 33.8 12.9C32.3 12.9 31.7 13.4 31.6 14C31.6 14.7 32.4 15.1 33.7 15.7C35.9 16.6 36.8 17.8 36.8 19.3ZM54 2.7V5.3H0V2.7C0 1.2 1.2 0 2.8 0H51.3C52.8 0 54 1.2 54 2.7Z" fill="#1E1F71"/>
<path d="M0 31.2996C0 32.5996 0.9 33.6996 2.2 33.8996H51.8C53.1 33.6996 54.1 32.5996 54.1 31.2996V28.5996H0V31.2996Z" fill="#F3B60D"/>
<path d="M65.8 0H114.3C115.8 0 117.1 1.2 117.1 2.7V31.2C117.1 32.7 115.8 33.9 114.3 33.9H65.8C64.2 33.9 63 32.7 63 31.2V2.7C63 1.2 64.2 0 65.8 0Z" fill="#1B366F"/>
<path d="M94.0998 17.0008C94.0998 23.7008 88.5998 29.1008 81.6998 29.1008C74.7998 29.1008 69.2998 23.7008 69.2998 17.0008C69.2998 10.2008 74.7998 4.80078 81.6998 4.80078C88.5998 4.80078 94.0998 10.2008 94.0998 17.0008Z" fill="#D9232A"/>
<path d="M98.3997 4.80078C97.4664 4.80078 96.5664 4.90078 95.6997 5.10078C94.7664 5.30078 93.8997 5.56745 93.0997 5.90078C92.233 6.30078 91.4664 6.76745 90.7997 7.30078C90.0664 7.90078 89.3997 8.53411 88.7997 9.20078H91.2997C91.633 9.60078 91.9664 10.0341 92.2997 10.5008H87.8997C87.833 10.6341 87.7664 10.7341 87.6997 10.8008C87.633 10.9341 87.5664 11.0674 87.4997 11.2008C87.433 11.2674 87.3664 11.3674 87.2997 11.5008C87.233 11.5674 87.1664 11.6674 87.0997 11.8008H92.8997C93.1664 12.2008 93.3664 12.6341 93.4997 13.1008H86.5997C86.4664 13.5008 86.333 13.9341 86.1997 14.4008H93.7997C93.9997 15.2674 94.0997 16.1341 94.0997 17.0008C94.0997 18.3341 93.8997 19.6008 93.4997 20.8008H86.5997C86.733 21.2674 86.8997 21.7008 87.0997 22.1008H92.8997C92.6997 22.5674 92.4664 23.0008 92.1997 23.4008H87.7997C88.0664 23.8674 88.3997 24.3008 88.7997 24.7008H91.2997C90.8997 25.1674 90.4664 25.6008 89.9997 26.0008C95.0997 30.5008 103 30.1008 107.6 25.1008C112.2 20.1008 111.7 12.3008 106.6 7.90078C106.066 7.36745 105.466 6.93411 104.8 6.60078C104.133 6.20078 103.466 5.86745 102.8 5.60078C102.066 5.33411 101.333 5.13411 100.6 5.00078C99.8664 4.86745 99.133 4.80078 98.3997 4.80078Z" fill="#ED9F2D"/>
<path fill-rule="evenodd" clip-rule="evenodd" d="M109.2 23.8004C109.2 23.5004 109.3 23.4004 109.6 23.4004C109.8 23.4004 110 23.5004 110 23.8004C110 23.8004 109.967 23.8337 109.9 23.9004C109.9 23.9671 109.867 24.0004 109.8 24.0004C109.8 24.0671 109.767 24.1004 109.7 24.1004C109.633 24.1004 109.6 24.1004 109.6 24.1004C109.533 24.1004 109.467 24.1004 109.4 24.1004C109.333 24.1004 109.3 24.0671 109.3 24.0004C109.233 24.0004 109.2 23.9671 109.2 23.9004C109.2 23.8337 109.2 23.8004 109.2 23.8004ZM109.6 24.1004C109.6 24.1004 109.633 24.0671 109.7 24.0004C109.7 24.0004 109.733 24.0004 109.8 24.0004C109.8 23.9337 109.8 23.9004 109.8 23.9004C109.867 23.8337 109.9 23.8004 109.9 23.8004C109.9 23.7337 109.867 23.6671 109.8 23.6004C109.8 23.6004 109.8 23.5671 109.8 23.5004C109.733 23.5004 109.7 23.5004 109.7 23.5004C109.633 23.5004 109.6 23.5004 109.6 23.5004C109.533 23.5004 109.467 23.5337 109.4 23.6004C109.333 23.6004 109.3 23.6671 109.3 23.8004C109.3 23.8671 109.333 23.9337 109.4 24.0004C109.4 24.0004 109.467 24.0337 109.6 24.1004ZM109.5 23.9004H109.4V23.6004H109.6C109.6 23.6004 109.633 23.6004 109.7 23.6004C109.7 23.6671 109.7 23.7004 109.7 23.7004C109.7 23.7671 109.667 23.8004 109.6 23.8004L109.7 23.9004H109.6V23.8004H109.5V23.9004ZM109.5 23.7004H109.6C109.6 23.7004 109.6 23.6671 109.6 23.6004C109.533 23.6004 109.5 23.6004 109.5 23.6004V23.7004ZM79.8 20.5004H78.6L78.7 20.0004C78.5667 20.1337 78.4667 20.2337 78.4 20.3004C78.2667 20.3671 78.1333 20.4337 78 20.5004C77.9333 20.5671 77.8333 20.6004 77.7 20.6004C77.5667 20.6004 77.4333 20.6004 77.3 20.6004C76.6 20.6004 76 20.1004 76 19.4004C76 19.3337 76 19.3004 76 19.3004C76 18.0004 76.9 17.3004 78.4 17.3004C78.5 17.3004 78.7 17.3004 78.9 17.4004C78.9 17.3337 78.9333 17.3004 79 17.3004C79 17.2337 79 17.2004 79 17.2004C79 17.2004 79 17.1671 79 17.1004C79 17.1004 79 17.0671 79 17.0004C79 16.7004 78.8 16.6004 78.1 16.6004C77.6333 16.6004 77.1667 16.6671 76.7 16.8004C76.7 16.7004 76.9 15.7004 76.9 15.7004C77.0333 15.6337 77.1667 15.6004 77.3 15.6004C77.4333 15.5337 77.5667 15.5004 77.7 15.5004C77.8333 15.4337 77.9667 15.4004 78.1 15.4004C78.2333 15.4004 78.3667 15.4004 78.5 15.4004C79.7 15.4004 80.3 15.9004 80.3 16.9004C80.3 16.9671 80.3 17.0337 80.3 17.1004C80.3 17.2337 80.2667 17.3337 80.2 17.4004C80.2 17.4671 80.2 17.5337 80.2 17.6004C80.2 17.6671 80.2 17.7671 80.2 17.9004C80 18.6004 79.8 20.2004 79.8 20.5004ZM78.8 18.3004C78.7333 18.3004 78.7 18.3004 78.7 18.3004C78.7 18.3004 78.6667 18.3004 78.6 18.3004C78.6 18.3004 78.5667 18.3004 78.5 18.3004C77.7 18.3004 77.3 18.5337 77.3 19.0004C77.3 19.0671 77.3 19.1337 77.3 19.2004C77.3667 19.2671 77.4 19.3337 77.4 19.4004C77.4667 19.4671 77.5333 19.5004 77.6 19.5004C77.6 19.5671 77.6333 19.6004 77.7 19.6004C77.7667 19.6004 77.8 19.6004 77.8 19.6004C78.3 19.6004 78.8 19.0004 78.8 18.3004ZM75.4 20.5004H74.1L74.9 15.8004L73.1 20.5004H72.2L72.1 15.8004L71.3 20.5004H70L71.1 14.3004H73.1L73.2 17.8004L74.4 14.3004H76.5L75.5 20.5004C75.4333 20.5004 75.4 20.5004 75.4 20.5004ZM101 20.5004H99.9L100 20.0004C99.6 20.4004 99.1 20.7004 98.5 20.6004C97.8 20.6004 97.3 20.1004 97.3 19.4004C97.3 19.3337 97.3 19.3004 97.3 19.3004C97.3 18.0004 98.2 17.3004 99.7 17.3004C99.8 17.3004 100 17.3004 100.2 17.4004C100.2 17.3337 100.2 17.3004 100.2 17.3004C100.2 17.2337 100.233 17.2004 100.3 17.2004C100.3 17.2004 100.3 17.1671 100.3 17.1004C100.3 17.1004 100.3 17.0671 100.3 17.0004C100.3 16.7004 100 16.6004 99.4 16.6004C98.9333 16.6004 98.4667 16.6671 98 16.8004C98 16.7004 98.2 15.7004 98.2 15.7004C98.3333 15.6337 98.4667 15.6004 98.6 15.6004C98.7333 15.5337 98.8667 15.5004 99 15.5004C99.1333 15.4337 99.2667 15.4004 99.4 15.4004C99.5333 15.4004 99.6667 15.4004 99.8 15.4004C100.9 15.4004 101.6 15.9004 101.6 16.9004C101.6 16.9671 101.567 17.0337 101.5 17.1004C101.5 17.2337 101.5 17.3337 101.5 17.4004C101.5 17.4671 101.5 17.5337 101.5 17.6004C101.5 17.6671 101.5 17.7671 101.5 17.9004C101.3 18.6004 101.1 20.2004 101 20.5004ZM100.1 18.3004C100.033 18.3004 100 18.3004 100 18.3004C99.9333 18.3004 99.9 18.3004 99.9 18.3004C99.9 18.3004 99.8667 18.3004 99.8 18.3004C99 18.3004 98.6 18.5337 98.6 19.0004C98.6 19.0671 98.6 19.1337 98.6 19.2004C98.6 19.2671 98.6333 19.3337 98.7 19.4004C98.7667 19.4671 98.8 19.5004 98.8 19.5004C98.8667 19.5671 98.9333 19.6004 99 19.6004C99.0667 19.6004 99.1 19.6004 99.1 19.6004C99.6 19.6004 100 19.0004 100.1 18.3004ZM85.8 20.4004C85.4667 20.5337 85.1333 20.6004 84.8 20.6004C84.6667 20.6671 84.5333 20.6671 84.4 20.6004C84.3333 20.5337 84.2333 20.4671 84.1 20.4004C84.0333 20.3337 83.9667 20.2337 83.9 20.1004C83.8333 20.0337 83.7667 19.9337 83.7 19.8004C83.7 19.7337 83.7 19.7004 83.7 19.7004C83.7 19.6337 83.7 19.6004 83.7 19.6004C83.7 19.6004 83.7 19.5671 83.7 19.5004C83.7667 19.1004 83.8333 18.6671 83.9 18.2004C84 17.7004 84.5 14.8004 84.5 14.8004H85.9L85.7 15.5004H86.5L86.3 16.7004H85.5C85.3 17.7004 85.1 18.9004 85.1 19.0004C85.1 19.2671 85.2667 19.4004 85.6 19.4004C85.7333 19.4004 85.8667 19.3671 86 19.3004L85.8 20.5004V20.4004ZM89.9 20.3004C89.7667 20.3671 89.6667 20.4004 89.6 20.4004C89.4667 20.4671 89.3333 20.5004 89.2 20.5004C89.0667 20.5004 88.9667 20.5004 88.9 20.5004C88.7667 20.5004 88.6333 20.5004 88.5 20.5004C87 20.5004 86.2 19.8004 86.2 18.3004C86.2 16.6004 87.2 15.3004 88.6 15.3004C89.5 15.3004 90.3 16.0004 90.4 16.9004C90.4 16.9671 90.4 17.0337 90.4 17.1004C90.4 17.2337 90.4 17.3671 90.4 17.5004C90.4 17.5671 90.4 17.6671 90.4 17.8004C90.3333 17.8671 90.3 17.9671 90.3 18.1004C90.3 18.1671 90.2667 18.2671 90.2 18.4004H87.5C87.4 19.1004 87.9 19.4004 88.7 19.4004C89.1667 19.4004 89.6333 19.3004 90.1 19.1004L89.9 20.3004ZM89.2 17.3004C89.2 17.2004 89.3 16.5004 88.5 16.5004C88.1 16.5004 87.8 16.8004 87.7 17.3004H89.2ZM80.6 17.0004C80.6 16.1004 81.1 15.3004 82.6 15.3004C82.6667 15.3004 82.7667 15.3004 82.9 15.3004C82.9667 15.3004 83.0667 15.3004 83.2 15.3004C83.2667 15.3004 83.3667 15.3004 83.5 15.3004C83.5667 15.3671 83.6667 15.4004 83.8 15.4004L83.6 16.6004C83.2667 16.5337 82.9333 16.5004 82.6 16.5004C82.2 16.5004 82 16.7004 82 16.9004C82 17.1004 82 17.2004 82.6 17.4004C82.7333 17.4671 82.8667 17.5337 83 17.6004C83.1333 17.7337 83.2333 17.8671 83.3 18.0004C83.3667 18.1337 83.4333 18.2671 83.5 18.4004C83.5667 18.5337 83.5667 18.6671 83.5 18.8004C83.5 20.0004 82.9 20.5004 81.5 20.5004C80.9667 20.5004 80.5 20.4671 80.1 20.4004C80.1 20.3004 80.2 19.2004 80.2 19.2004C80.6 19.3337 81 19.4004 81.4 19.4004C81.9333 19.4004 82.2 19.2337 82.2 18.9004C82.2 18.7004 82.1 18.7004 81.6 18.4004C81.4667 18.3337 81.3333 18.2671 81.2 18.2004C81.0667 18.1337 80.9667 18.0337 80.9 17.9004C80.7667 17.7671 80.7 17.6337 80.7 17.5004C80.6333 17.3004 80.6 17.1337 80.6 17.0004ZM94.8 17.7004C94.8 18.7004 95.2 19.3004 96 19.3004C96.4 19.2337 96.8 19.1004 97.2 18.9004L96.9 20.3004C96.8333 20.3671 96.7333 20.4004 96.6 20.4004C96.5333 20.4671 96.4333 20.5004 96.3 20.5004C96.2333 20.5004 96.1333 20.5004 96 20.5004C95.9333 20.5004 95.8333 20.5004 95.7 20.5004C94.3 20.5004 93.4 19.5004 93.4 17.9004C93.4 17.5004 93.4333 17.1337 93.5 16.8004C93 16.8004 92.8 16.9004 92.7 17.2004L92.2 17.5004C92.1 18.1004 92 19.0004 91.8 20.4004H90.4L90.5 20.1004C90.7 18.5004 91 17.0004 91.2 15.4004H92.4C92.4 15.6004 92.4 15.7671 92.4 15.9004L92.7 15.8004C93.1 15.3004 93.4 14.8004 94.2 15.0004C94.3333 14.8671 94.4667 14.7337 94.6 14.6004C94.8 14.4671 95 14.3337 95.2 14.2004C95.4 14.0671 95.6 14.0004 95.8 14.0004C96 13.9337 96.2 13.9004 96.4 13.9004C96.5333 13.9004 96.6667 13.9337 96.8 14.0004C96.9333 14.0004 97.0667 14.0337 97.2 14.1004C97.3333 14.1004 97.4667 14.1337 97.6 14.2004C97.6667 14.2671 97.7667 14.3337 97.9 14.4004L97.7 15.8004C97.3 15.5337 96.9 15.4004 96.5 15.4004C95.5 15.4004 94.8 16.4004 94.8 17.7004Z" fill="black"/>
<path d="M75.7999 20.2H74.4999L75.2999 15.4L73.4999 20.2H72.5999L72.4999 15.5L71.6999 20.2H70.3999L71.4999 14H73.3999L73.4999 17.8L74.7999 14H76.8999L75.7999 20.2Z" fill="white"/>
<path fill-rule="evenodd" clip-rule="evenodd" d="M109.2 14.4004L108.2 20.6004H106.9L107 20.1004C106.933 20.2337 106.833 20.3337 106.7 20.4004C106.633 20.4671 106.533 20.5004 106.4 20.5004C106.267 20.5671 106.167 20.6004 106.1 20.6004C105.967 20.6671 105.833 20.6671 105.7 20.6004C104.8 20.6004 104.1 19.8004 104.1 18.6004C104.1 18.4671 104.1 18.3004 104.1 18.1004C104.167 17.9671 104.2 17.8337 104.2 17.7004C104.2 17.5671 104.233 17.4337 104.3 17.3004C104.367 17.1671 104.4 17.0337 104.4 16.9004C104 16.9004 103.7 17.3004 103.3 17.7004C103.233 17.9004 103.2 18.1337 103.2 18.4004C103.133 18.6671 103.1 18.9004 103.1 19.1004C103.033 19.3671 103 19.6004 103 19.8004C102.933 20.0671 102.9 20.3337 102.9 20.6004H101.5L101.6 20.2004C101.8 18.7004 102.1 17.1004 102.3 15.5004H103.5C103.5 15.6337 103.467 15.9004 103.4 16.3004C103.4 16.3004 104 16.5004 104.6 16.6004C104.667 16.4004 104.767 16.2337 104.9 16.1004C105.033 15.9671 105.167 15.8337 105.3 15.7004C105.433 15.6337 105.6 15.5671 105.8 15.5004C105.933 15.4337 106.1 15.4004 106.3 15.4004C106.433 15.4004 106.567 15.4004 106.7 15.4004C106.833 15.4671 106.933 15.5337 107 15.6004C107.133 15.6671 107.267 15.7337 107.4 15.8004C107.467 15.9337 107.533 16.0337 107.6 16.1004L107.9 14.4004H109.2ZM106.2 19.3004C106.8 19.3004 107.3 18.6004 107.3 17.6004C107.233 17.0004 106.967 16.7004 106.5 16.7004C105.9 16.7004 105.5 17.4004 105.5 18.3004C105.5 18.9671 105.733 19.3004 106.2 19.3004Z" fill="black"/>
<path fill-rule="evenodd" clip-rule="evenodd" d="M80.1999 20.2H78.9999L79.0999 19.6C78.6999 20.1 78.1999 20.3 77.5999 20.3C76.8999 20.2 76.3999 19.7 76.3999 19C76.3999 18.9333 76.3999 18.9 76.3999 18.9C76.3999 17.7 77.2999 16.9 78.7999 16.9C78.8999 16.9 79.0999 16.9 79.2999 17C79.2999 16.9333 79.2999 16.9 79.2999 16.9C79.3666 16.9 79.3999 16.8667 79.3999 16.8C79.3999 16.8 79.3999 16.7667 79.3999 16.7C79.3999 16.3 79.0999 16.2 78.4999 16.2C78.3666 16.2 78.2666 16.2 78.1999 16.2C78.0666 16.2 77.9332 16.2333 77.7999 16.3C77.6666 16.3 77.5332 16.3 77.3999 16.3C77.3332 16.3667 77.2332 16.4 77.0999 16.4C77.0999 16.3 77.2999 15.3 77.2999 15.3C77.4332 15.2333 77.5666 15.2 77.6999 15.2C77.8332 15.1333 77.9666 15.1 78.0999 15.1C78.2332 15.1 78.3666 15.1 78.4999 15.1C78.6332 15.0333 78.7666 15 78.8999 15C80.0999 15 80.6999 15.6 80.6999 16.5C80.6999 16.5667 80.6999 16.6667 80.6999 16.8C80.6999 16.8667 80.6666 16.9333 80.5999 17C80.5999 17.0667 80.5999 17.1667 80.5999 17.3C80.5999 17.3667 80.5999 17.4333 80.5999 17.5C80.3999 18.2 80.1999 19.8 80.0999 20.1L80.1999 20.2ZM79.2999 18C79.2332 18 79.1999 18 79.1999 18C79.1999 18 79.1666 18 79.0999 18C79.0999 18 79.0666 18 78.9999 18C78.1999 18 77.7999 18.2667 77.7999 18.8C77.7999 18.8667 77.7999 18.9333 77.7999 19C77.7999 19 77.8332 19.0333 77.8999 19.1C77.9666 19.1667 77.9999 19.2 77.9999 19.2C78.0666 19.2667 78.1332 19.3 78.1999 19.3C78.1999 19.3 78.2332 19.3 78.2999 19.3C78.7999 19.3 79.1999 18.8 79.2999 18ZM98.0999 15.7C98.0332 15.6333 97.9666 15.5667 97.8999 15.5C97.7666 15.5 97.6666 15.4667 97.5999 15.4C97.4666 15.4 97.3666 15.3667 97.2999 15.3C97.1666 15.3 97.0332 15.3 96.8999 15.3C95.8999 15.3 95.1999 16.3 95.1999 17.6C95.1999 18.6 95.6999 19.1 96.4999 19.1C96.8999 19.1 97.2666 19 97.5999 18.8L97.3999 20.2C97.2666 20.2667 97.1666 20.3 97.0999 20.3C97.0332 20.3 96.9332 20.3333 96.7999 20.4C96.7332 20.4 96.6332 20.4 96.4999 20.4C96.4332 20.4 96.3332 20.4 96.1999 20.4C94.6999 20.4 93.7999 19.4 93.7999 17.8C93.7999 15.6 95.0999 14 96.8999 14C97.0332 14 97.1666 14 97.2999 14C97.3666 14.0667 97.4666 14.1 97.5999 14.1C97.7332 14.1667 97.8666 14.2 97.9999 14.2C98.1332 14.2667 98.2666 14.3 98.3999 14.3L98.0999 15.7ZM101.4 20.4H100.3V19.9C99.9999 20.3 99.4999 20.5 98.8999 20.5C98.1999 20.5 97.6999 19.9 97.6999 19.2C97.6999 19.2 97.6999 19.1667 97.6999 19.1C97.6999 17.9 98.5999 17.2 100.1 17.2C100.2 17.2 100.4 17.2 100.6 17.2C100.6 17.1333 100.6 17.1 100.6 17.1C100.667 17.0333 100.7 17 100.7 17C100.7 16.9333 100.7 16.9 100.7 16.9C100.7 16.6 100.4 16.5 99.7999 16.5C99.6666 16.5 99.5332 16.5 99.3999 16.5C99.3332 16.5 99.2332 16.5 99.0999 16.5C98.9666 16.5 98.8332 16.5333 98.6999 16.6C98.5666 16.6 98.4666 16.6333 98.3999 16.7C98.3999 16.6 98.5999 15.6 98.5999 15.6C98.7332 15.5333 98.8666 15.4667 98.9999 15.4C99.1332 15.4 99.2666 15.4 99.3999 15.4C99.5332 15.3333 99.6666 15.3 99.7999 15.3C99.9332 15.3 100.067 15.3 100.2 15.3C101.3 15.3 102 15.8 102 16.8C101.933 16.8667 101.9 16.9333 101.9 17C101.9 17.0667 101.9 17.1667 101.9 17.3C101.9 17.3667 101.9 17.4333 101.9 17.5C101.9 17.5667 101.867 17.6667 101.8 17.8C101.7 18.5 101.5 20 101.4 20.4ZM100.4 18.2C100.333 18.2 100.3 18.2 100.3 18.2C100.3 18.2 100.267 18.2 100.2 18.2C100.2 18.2 100.167 18.2 100.1 18.2C99.3666 18.2 98.9999 18.4667 98.9999 19C98.9999 19 98.9999 19.0333 98.9999 19.1C98.9999 19.1667 99.0332 19.2333 99.0999 19.3C99.0999 19.3667 99.1332 19.4 99.1999 19.4C99.2666 19.4667 99.3332 19.5 99.3999 19.5C99.4666 19.5 99.4999 19.5 99.4999 19.5C99.9999 19.4 100.4 18.9 100.5 18.2H100.4ZM86.0999 20.3C86.0332 20.3667 85.9332 20.4 85.7999 20.4C85.7332 20.4 85.6666 20.4 85.5999 20.4C85.5332 20.4667 85.4666 20.5 85.3999 20.5C85.2666 20.5 85.1666 20.5 85.0999 20.5C84.9666 20.5 84.8332 20.5 84.6999 20.5C84.6332 20.4333 84.5332 20.3667 84.3999 20.3C84.2666 20.2333 84.1999 20.1333 84.1999 20C84.1332 19.8667 84.0666 19.7333 83.9999 19.6C83.9999 19.5333 83.9999 19.5 83.9999 19.5C83.9999 19.5 83.9999 19.4667 83.9999 19.4C84.0666 18.9333 84.1332 18.4667 84.1999 18C84.2999 17.6 84.7999 14.6 84.7999 14.6H86.0999L85.9999 15.4H86.6999L86.4999 16.6H85.7999C85.6999 17.5 85.4999 18.7 85.4999 18.9C85.4999 19.1667 85.6332 19.3 85.8999 19.3C86.0332 19.3 86.1666 19.2667 86.2999 19.2L86.0999 20.3ZM90.1999 20.3C90.0666 20.3 89.9666 20.3333 89.8999 20.4C89.7666 20.4 89.6332 20.4 89.4999 20.4C89.4332 20.4667 89.3332 20.5 89.1999 20.5C89.0666 20.5 88.9332 20.5 88.7999 20.5C87.2999 20.5 86.4999 19.7 86.4999 18.2C86.4999 16.5 87.4999 15.3 88.8999 15.3C89.7999 15.2 90.6999 15.9 90.6999 16.8C90.6999 16.9333 90.6999 17.0333 90.6999 17.1C90.6999 17.1667 90.6999 17.2667 90.6999 17.4C90.6999 17.4667 90.6999 17.5667 90.6999 17.7C90.6332 17.7667 90.5999 17.8667 90.5999 18C90.5999 18.0667 90.5666 18.1667 90.4999 18.3H87.8999C87.7999 19 88.1999 19.3 88.9999 19.3C89.1332 19.3 89.2666 19.3 89.3999 19.3C89.5332 19.3 89.6332 19.3 89.6999 19.3C89.8332 19.2333 89.9666 19.2 90.0999 19.2C90.2332 19.1333 90.3332 19.0667 90.3999 19L90.1999 20.3ZM89.3999 17.3C89.3999 17.2 89.5999 16.4 88.7999 16.4C88.3999 16.4 88.0999 16.7 87.9999 17.3H89.3999ZM80.7999 16.9C80.7999 16 81.2999 15.2 82.7999 15.2C82.9332 15.2 83.0332 15.2 83.0999 15.2C83.2332 15.2667 83.3332 15.3 83.3999 15.3C83.5332 15.3 83.6332 15.3 83.6999 15.3C83.8332 15.3 83.9332 15.3 83.9999 15.3L83.7999 16.5C83.4666 16.4333 83.1666 16.4 82.8999 16.4C82.3999 16.4 82.1999 16.6 82.1999 16.8C82.1999 17.1 82.2999 17.1 82.7999 17.4C82.9999 17.4 83.1332 17.4667 83.1999 17.6C83.3332 17.6667 83.4666 17.7667 83.5999 17.9C83.6666 18.0333 83.6999 18.1667 83.6999 18.3C83.7666 18.4333 83.7999 18.6 83.7999 18.8C83.7999 19.9 83.0999 20.4 81.6999 20.4C81.2332 20.4667 80.7666 20.4333 80.2999 20.3C80.2999 20.2 80.4999 19.1 80.4999 19.1C80.8999 19.2333 81.2999 19.3 81.6999 19.3C82.2332 19.3 82.4999 19.1667 82.4999 18.9C82.4999 18.7 82.3999 18.6 81.7999 18.4C81.6666 18.3333 81.5332 18.2333 81.3999 18.1C81.2666 18.0333 81.1666 17.9333 81.0999 17.8C81.0332 17.6667 80.9666 17.5333 80.8999 17.4C80.8332 17.2667 80.7999 17.1333 80.7999 17V16.9ZM107.2 20.3V19.8C107.133 19.9333 107.067 20.0333 107 20.1C106.867 20.1667 106.767 20.2 106.7 20.2C106.567 20.2667 106.433 20.3 106.3 20.3C106.167 20.3667 106.067 20.4 106 20.4C105 20.4 104.3 19.5 104.3 18.3C104.3 16.6 105.4 15.2 106.6 15.2C106.667 15.2 106.767 15.2333 106.9 15.3C107.033 15.3 107.167 15.3333 107.3 15.4C107.433 15.4667 107.533 15.5333 107.6 15.6C107.667 15.6667 107.733 15.7667 107.8 15.9L108.1 14.1H109.5L108.4 20.3H107.2ZM106.5 19.1C107.2 19.1 107.6 18.4 107.6 17.4C107.6 16.8 107.4 16.4 106.9 16.4C106.3 16.4 105.8 17.1 105.8 18.1C105.8 18.7667 106.033 19.1 106.5 19.1ZM103.8 15.3C103.8 15.5 103.8 15.7333 103.8 16C104.2 15.4 104.5 15.1 105.1 15.2C104.833 15.6667 104.667 16.1667 104.6 16.7C103.8 16.6 103.7 17.2 103.2 20.3H101.8L101.9 19.9C102.1 18.4 102.4 16.8 102.6 15.3H103.8ZM92.6999 15.3C92.6999 15.5 92.6666 15.7333 92.5999 16C92.9999 15.4 93.2999 15.1 93.8999 15.2C93.6332 15.6667 93.4666 16.1667 93.3999 16.7C92.5999 16.6 92.4999 17.2 91.9999 20.3H90.6999V19.9C90.9999 18.4 91.2999 16.8 91.3999 15.3H92.6999ZM109.1 19.9C109.1 19.7 109.3 19.5 109.5 19.5C109.7 19.5 109.9 19.7 109.9 19.9C109.9 19.9667 109.9 20 109.9 20C109.833 20.0667 109.8 20.1333 109.8 20.2C109.733 20.2 109.7 20.2333 109.7 20.3C109.633 20.3 109.567 20.3 109.5 20.3C109.433 20.3 109.367 20.3 109.3 20.3C109.3 20.2333 109.267 20.2 109.2 20.2C109.2 20.1333 109.167 20.0667 109.1 20C109.1 20 109.1 19.9667 109.1 19.9ZM109.5 20.2C109.567 20.2 109.6 20.2 109.6 20.2C109.667 20.1333 109.7 20.1 109.7 20.1C109.767 20.1 109.8 20.0667 109.8 20C109.8 19.9333 109.8 19.9 109.8 19.9C109.8 19.8333 109.8 19.8 109.8 19.8C109.8 19.7333 109.767 19.7 109.7 19.7C109.7 19.6333 109.667 19.6 109.6 19.6C109.6 19.6 109.567 19.6 109.5 19.6C109.433 19.6 109.4 19.6 109.4 19.6C109.333 19.6 109.3 19.6 109.3 19.6C109.233 19.6667 109.2 19.7 109.2 19.7C109.2 19.7667 109.2 19.8 109.2 19.8C109.133 19.8667 109.133 19.9333 109.2 20C109.2 20 109.2 20.0333 109.2 20.1C109.267 20.1 109.3 20.1 109.3 20.1C109.367 20.1667 109.4 20.2 109.4 20.2C109.467 20.2 109.5 20.2 109.5 20.2ZM109.4 20.1V19.7H109.5C109.567 19.7 109.6 19.7 109.6 19.7C109.6 19.7 109.6 19.7333 109.6 19.8C109.6 19.8 109.6 19.8333 109.6 19.9L109.7 20H109.6L109.5 19.9V20L109.4 20.1ZM109.4 19.9C109.4 19.8333 109.4 19.8 109.4 19.8H109.3V19.9H109.4Z" fill="white"/>
<path d="M254.8 0H303.3C304.9 0 306.1 1.2 306.1 2.7V31.2C306.1 32.7 304.9 33.9 303.3 33.9H254.8C253.3 33.9 252 32.7 252 31.2V2.7C252 1.2 253.3 0 254.8 0Z" fill="#2054A3"/>
<path fill-rule="evenodd" clip-rule="evenodd" d="M252 15.9992V11.5992L253.9 7.69922H257.8L258.4 8.69922V7.69922H263L264 9.79922L265 7.69922H279.8C279.933 7.69922 280.067 7.69922 280.2 7.69922C280.333 7.69922 280.5 7.73255 280.7 7.79922C280.833 7.79922 280.967 7.83255 281.1 7.89922C281.233 7.96589 281.367 8.06589 281.5 8.19922V7.69922H285.5V8.19922C285.7 8.06589 285.9 7.96589 286.1 7.89922C286.3 7.83255 286.5 7.79922 286.7 7.79922C286.967 7.73255 287.2 7.69922 287.4 7.69922C287.6 7.69922 287.8 7.69922 288 7.69922H293.9L294.4 8.69922V7.69922H298.8L299.4 8.69922V7.69922H303.6V15.9992H299.3L298.5 14.6992V15.9992H293.2L292.6 14.6992H291.3L290.7 15.9992H287.9C287.1 15.9992 286.3 15.7992 285.5 15.4992V15.9992H278.9V14.0992C278.9 13.7992 278.9 13.7992 278.7 13.7992H278.5V15.9992H265.8V14.9992L265.3 15.9992H262.7L262.2 14.9992V15.9992H257.1L256.5 14.6992H255.2L254.7 15.9992H252.1H252ZM268.4 14.7992V8.79922H265.8L264 12.8992L262 8.79922H259.5V14.4992L257 8.79922H254.7L252 14.7992H253.6L254.2 13.4992H257.4L258 14.7992H261V10.0992L263.3 14.7992H264.6L266.8 10.0992V14.7992H268.3H268.4ZM254.9 12.1992L255.9 9.89922L256.9 12.1992H254.9ZM274.7 14.7992V13.4992H271.2V12.3992H274.6V11.0992H271.1V10.0992H274.7V8.79922H269.6V14.7992H274.7ZM281.9 10.4992C281.9 9.89922 281.6 9.39922 281.1 9.09922C280.967 9.03255 280.8 8.99922 280.6 8.99922C280.467 8.93255 280.333 8.89922 280.2 8.89922C280.067 8.83255 279.9 8.79922 279.7 8.79922C279.567 8.79922 279.433 8.79922 279.3 8.79922H275.8V14.7992H277.3V12.5992H278.9C278.967 12.5992 279.067 12.5992 279.2 12.5992C279.267 12.5992 279.367 12.6326 279.5 12.6992C279.567 12.6992 279.667 12.7326 279.8 12.7992C279.867 12.7992 279.933 12.8326 280 12.8992C280.067 12.9659 280.1 13.0659 280.1 13.1992C280.167 13.2659 280.2 13.3659 280.2 13.4992C280.267 13.5659 280.3 13.6659 280.3 13.7992C280.3 13.8659 280.267 13.9659 280.2 14.0992V14.7992H281.8V13.6992C281.8 13.2992 281.7 12.8992 281.5 12.5992C281.3 12.3326 281.067 12.1659 280.8 12.0992C280.933 12.0326 281.067 11.9326 281.2 11.7992C281.333 11.7326 281.467 11.5992 281.6 11.3992C281.667 11.2659 281.733 11.1326 281.8 10.9992C281.867 10.7992 281.9 10.6326 281.9 10.4992ZM279.9 11.3992C279.833 11.3992 279.8 11.3992 279.8 11.3992C279.733 11.4659 279.667 11.4992 279.6 11.4992C279.533 11.4992 279.467 11.4992 279.4 11.4992C279.333 11.4992 279.267 11.4992 279.2 11.4992H277.3V10.1992H279.2C279.267 10.1992 279.333 10.1992 279.4 10.1992C279.467 10.1992 279.533 10.1992 279.6 10.1992C279.667 10.1992 279.733 10.1992 279.8 10.1992C279.867 10.1992 279.9 10.2326 279.9 10.2992C280.1 10.3992 280.3 10.5992 280.3 10.7992C280.3 10.8659 280.267 10.9326 280.2 10.9992C280.2 10.9992 280.2 11.0326 280.2 11.0992C280.133 11.1659 280.1 11.1992 280.1 11.1992C280.033 11.2659 279.967 11.2992 279.9 11.2992C279.9 11.3659 279.9 11.3992 279.9 11.3992ZM284.3 8.79922H282.8V14.7992H284.3V8.79922ZM302.3 14.7992V8.79922H300.7V12.9992L298 8.79922H295.7V14.4992L293.2 8.79922H290.9L288.8 13.4992H288.1C287.7 13.5992 287.3 13.4992 287 13.1992C286.7 12.7992 286.5 12.2992 286.6 11.7992C286.6 11.6659 286.6 11.5659 286.6 11.4992C286.6 11.3659 286.633 11.2326 286.7 11.0992C286.7 10.9659 286.733 10.8659 286.8 10.7992C286.867 10.6659 286.933 10.5659 287 10.4992C287.067 10.4326 287.167 10.3659 287.3 10.2992C287.367 10.2326 287.467 10.1992 287.6 10.1992C287.667 10.1326 287.767 10.0992 287.9 10.0992C287.967 10.0992 288.067 10.0992 288.2 10.0992H289.6V8.79922H288.2C288 8.79922 287.767 8.83255 287.5 8.89922C287.3 8.89922 287.1 8.93255 286.9 8.99922C286.7 9.06589 286.533 9.13255 286.4 9.19922C286.2 9.33255 286.033 9.46589 285.9 9.59922C285.3 10.1992 285 10.9992 285 11.8992C285 12.0992 285.033 12.2992 285.1 12.4992C285.1 12.6992 285.133 12.8992 285.2 13.0992C285.267 13.2992 285.367 13.4992 285.5 13.6992C285.567 13.8326 285.7 13.9992 285.9 14.1992C286.033 14.3326 286.2 14.4326 286.4 14.4992C286.533 14.5659 286.7 14.6326 286.9 14.6992C287.1 14.7659 287.3 14.7992 287.5 14.7992C287.7 14.8659 287.9 14.8659 288.1 14.7992H289.8L290.4 13.4992H293.6L294.1 14.7992H297.2V10.3992L300.1 14.7992H302.3ZM291 12.1992L292.1 9.89922L293.1 12.1992H291ZM306.2 24.2992V25.8992C306 25.9659 305.833 26.0326 305.7 26.0992C305.5 26.0992 305.3 26.1326 305.1 26.1992C304.9 26.1992 304.733 26.2326 304.6 26.2992C304.4 26.2992 304.2 26.2992 304 26.2992H300V25.6992C299.867 25.8326 299.733 25.9326 299.6 25.9992C299.4 26.0659 299.233 26.1326 299.1 26.1992C298.9 26.1992 298.7 26.1992 298.5 26.1992C298.367 26.2659 298.2 26.2992 298 26.2992H285.5V24.2992C285.5 24.0992 285.5 24.0992 285.3 24.0992H285.1V26.2992H281V23.9992C280.8 24.0659 280.633 24.1326 280.5 24.1992C280.3 24.1992 280.1 24.2326 279.9 24.2992C279.767 24.2992 279.6 24.2992 279.4 24.2992C279.2 24.2992 279.033 24.2992 278.9 24.2992H278.4V26.2992H273.4L272.2 24.9992L270.9 26.2992H262.9V17.8992H271.1L272.3 19.1992L273.5 17.8992H279C279.6 17.8992 280.7 17.9992 281.1 18.3992V17.8992H286C286.2 17.8992 286.4 17.9326 286.6 17.9992C286.733 17.9992 286.9 18.0326 287.1 18.0992C287.233 18.0992 287.4 18.1326 287.6 18.1992C287.733 18.2659 287.9 18.3326 288.1 18.3992V17.8992H295.5V18.3992C295.633 18.3326 295.767 18.2659 295.9 18.1992C296.033 18.1326 296.167 18.0659 296.3 17.9992C296.5 17.9992 296.667 17.9992 296.8 17.9992C296.933 17.9326 297.1 17.8992 297.3 17.8992H301.4V18.3992C301.533 18.3326 301.7 18.2659 301.9 18.1992C302.033 18.1326 302.2 18.0659 302.4 17.9992C302.533 17.9992 302.667 17.9992 302.8 17.9992C303 17.9326 303.167 17.8992 303.3 17.8992H306.2V19.1992H303.1C301.5 19.1992 301 20.0992 301 20.8992C301 22.7992 302.7 22.6992 304.2 22.7992C304.2 22.7992 304.233 22.7992 304.3 22.7992C304.367 22.7992 304.4 22.7992 304.4 22.7992C304.467 22.7992 304.533 22.7992 304.6 22.7992C304.6 22.8659 304.633 22.8992 304.7 22.8992C304.767 22.8992 304.8 22.9326 304.8 22.9992C304.8 22.9992 304.8 23.0326 304.8 23.0992C304.867 23.0992 304.9 23.1326 304.9 23.1992C304.9 23.1992 304.9 23.2326 304.9 23.2992C304.9 23.3659 304.9 23.3992 304.9 23.3992C304.9 23.4659 304.867 23.4992 304.8 23.4992C304.8 23.5659 304.8 23.5992 304.8 23.5992C304.8 23.5992 304.767 23.6326 304.7 23.6992C304.633 23.6992 304.6 23.7326 304.6 23.7992C304.533 23.7992 304.467 23.7992 304.4 23.7992C304.333 23.7992 304.3 23.7992 304.3 23.7992C304.233 23.7992 304.167 23.7992 304.1 23.7992H301.2V25.0992H304.1C305.1 25.0992 305.8 24.8992 306.2 24.2992ZM281.6 21.0992C281.6 19.4992 280.2 19.1992 279 19.1992H274.1L272.2 21.0992L270.3 19.1992H264.2V25.1992H270.3L272.2 23.1992L274.1 25.1992H277V23.0992H278.9C280.3 23.0992 281.6 22.7992 281.6 21.1992V21.0992ZM269.5 23.7992H265.8V22.5992H269.1V21.3992H265.8V20.2992H269.5L271.2 21.9992L269.5 23.7992ZM275.5 24.4992L273.2 22.0992L275.5 19.6992V24.4992ZM279 21.8992H277V20.2992H279C279.5 20.2992 279.9 20.5992 279.9 21.0992C279.9 21.5992 279.5 21.8992 279 21.8992ZM289.3 19.0992V24.9992H294.4V23.7992H290.8V22.5992H294.3V21.3992H290.8V20.2992H294.4V19.0992H289.3ZM287.3 22.2992C287.5 22.2326 287.667 22.1326 287.8 21.9992C287.933 21.9326 288.033 21.7992 288.1 21.5992C288.167 21.4659 288.233 21.3326 288.3 21.1992C288.367 20.9992 288.4 20.8326 288.4 20.6992C288.4 20.0992 288.1 19.5992 287.6 19.3992C287.467 19.3326 287.333 19.2659 287.2 19.1992C287.067 19.1326 286.9 19.0992 286.7 19.0992C286.567 19.0992 286.433 19.0992 286.3 19.0992C286.1 19.0992 285.933 19.0992 285.8 19.0992H282.3V24.9992H283.8V22.7992H285.4C285.533 22.7992 285.633 22.7992 285.7 22.7992C285.833 22.7992 285.933 22.8326 286 22.8992C286.133 22.8992 286.233 22.9326 286.3 22.9992C286.367 22.9992 286.433 23.0326 286.5 23.0992C286.8 23.3992 286.8 23.8992 286.8 24.2992V25.0992H288.3V23.8992C288.3 23.4992 288.3 23.0992 288 22.7992C287.8 22.5326 287.567 22.3659 287.3 22.2992ZM286.4 21.4992C286.333 21.5659 286.267 21.5992 286.2 21.5992C286.133 21.5992 286.1 21.5992 286.1 21.5992C286.033 21.6659 285.967 21.6992 285.9 21.6992C285.833 21.6992 285.767 21.6992 285.7 21.6992H283.8V20.2992H285.7C285.767 20.2992 285.833 20.2992 285.9 20.2992C285.967 20.2992 286.033 20.2992 286.1 20.2992C286.167 20.2992 286.233 20.2992 286.3 20.2992C286.367 20.3659 286.4 20.3992 286.4 20.3992C286.6 20.4992 286.8 20.6992 286.8 20.8992C286.8 20.9659 286.767 21.0326 286.7 21.0992C286.7 21.1659 286.7 21.2326 286.7 21.2992C286.633 21.2992 286.6 21.3326 286.6 21.3992C286.533 21.4659 286.467 21.4992 286.4 21.4992ZM300.1 21.7992C300.033 21.7326 299.9 21.6659 299.7 21.5992C299.567 21.5326 299.433 21.4992 299.3 21.4992C299.167 21.4326 299.033 21.3992 298.9 21.3992C298.7 21.3992 298.533 21.3992 298.4 21.3992H297.6C297.4 21.3992 297.2 21.3659 297 21.2992C296.8 21.1992 296.7 21.0992 296.7 20.8992C296.7 20.8326 296.7 20.7659 296.7 20.6992C296.7 20.6992 296.7 20.6659 296.7 20.5992C296.7 20.5992 296.733 20.5659 296.8 20.4992C296.8 20.4992 296.833 20.4659 296.9 20.3992C296.967 20.3992 297 20.3992 297 20.3992C297.067 20.3326 297.133 20.2992 297.2 20.2992C297.267 20.2992 297.3 20.2992 297.3 20.2992C297.367 20.2992 297.433 20.2992 297.5 20.2992H300.3V19.0992H297.2C295.7 19.0992 295.1 19.9992 295.1 20.7992C295.1 22.6992 296.9 22.5992 298.3 22.6992C298.367 22.6992 298.4 22.6992 298.4 22.6992C298.467 22.6992 298.533 22.6992 298.6 22.6992C298.6 22.6992 298.633 22.6992 298.7 22.6992C298.767 22.7659 298.8 22.7992 298.8 22.7992C298.867 22.7992 298.9 22.8326 298.9 22.8992C298.9 22.8992 298.933 22.9326 299 22.9992C299 22.9992 299 23.0326 299 23.0992C299 23.0992 299 23.1326 299 23.1992C299 23.2659 299 23.2992 299 23.2992C299 23.3659 299 23.3992 299 23.3992C298.933 23.4659 298.9 23.4992 298.9 23.4992C298.9 23.4992 298.867 23.5326 298.8 23.5992C298.8 23.5992 298.767 23.6326 298.7 23.6992C298.633 23.6992 298.567 23.6992 298.5 23.6992C298.5 23.6992 298.467 23.6992 298.4 23.6992C298.333 23.6992 298.267 23.6992 298.2 23.6992H295.3V24.9992H298.2C299.8 24.9992 300.6 24.3992 300.6 23.1992C300.7 22.6992 300.5 22.1992 300.2 21.8992L300.1 21.7992ZM306.2 20.2992V21.9992C306.133 21.9326 306.067 21.8659 306 21.7992C305.933 21.7326 305.8 21.6659 305.6 21.5992C305.467 21.5326 305.333 21.4659 305.2 21.3992C305.067 21.3992 304.933 21.3992 304.8 21.3992C304.6 21.3326 304.433 21.3326 304.3 21.3992H303.5C303.3 21.3992 303.1 21.3659 302.9 21.2992C302.833 21.2992 302.8 21.2659 302.8 21.1992C302.733 21.1992 302.7 21.1659 302.7 21.0992C302.633 21.0992 302.6 21.0659 302.6 20.9992C302.6 20.9326 302.6 20.8659 302.6 20.7992C302.6 20.7992 302.6 20.7659 302.6 20.6992C302.6 20.6326 302.6 20.5992 302.6 20.5992C302.667 20.5326 302.7 20.4992 302.7 20.4992C302.7 20.4326 302.733 20.3992 302.8 20.3992C302.867 20.3992 302.9 20.3992 302.9 20.3992C302.967 20.3326 303.033 20.2992 303.1 20.2992C303.167 20.2992 303.233 20.2992 303.3 20.2992C303.3 20.2992 303.333 20.2992 303.4 20.2992H306.2Z" fill="white"/>
<path fill-rule="evenodd" clip-rule="evenodd" d="M192.8 33.7008C190.9 33.7008 189.3 32.2008 189.3 30.3008V3.70078C189.3 1.80078 190.9 0.300781 192.8 0.300781H239.3C241.2 0.300781 242.8 1.80078 242.8 3.70078V30.3008C242.8 32.2008 241.2 33.7008 239.3 33.7008H192.8Z" fill="white"/>
<path fill-rule="evenodd" clip-rule="evenodd" d="M239.3 0C241.4 0 243.1 1.7 243.1 3.7V30.3C243.1 32.3 241.4 34 239.3 34H192.8C190.7 34 189 32.3 189 30.3V3.8C189 1.7 190.7 0 192.8 0L239.3 0ZM239.3 0.6H192.9C191.1 0.6 189.6 2 189.6 3.7V30.3C189.6 32 191.1 33.4 192.9 33.4H239.3C241.1 33.4 242.6 32 242.6 30.3V3.7C242.6 2 241.1 0.5 239.3 0.5V0.6Z" fill="#8E8E8E"/>
<path fill-rule="evenodd" clip-rule="evenodd" d="M211.7 11.0005C211.834 11.0005 212 11.0005 212.2 11.0005C212.334 11.0005 212.467 11.0339 212.6 11.1005C212.734 11.1005 212.867 11.1339 213 11.2005C213.2 11.2672 213.367 11.3339 213.5 11.4005V12.9005C213.367 12.8339 213.234 12.7339 213.1 12.6005C212.967 12.5339 212.8 12.4672 212.6 12.4005C212.467 12.3339 212.334 12.2672 212.2 12.2005C212 12.2005 211.834 12.2005 211.7 12.2005C210.4 12.2005 209.3 13.2005 209.3 14.4005V14.5005C209.3 15.7005 210.3 16.8005 211.6 16.8005C211.6 16.8005 211.634 16.8005 211.7 16.8005C212.4 16.8005 213 16.5005 213.5 16.1005V17.6005C213.367 17.6672 213.2 17.7339 213 17.8005C212.867 17.8672 212.734 17.9005 212.6 17.9005C212.467 17.9672 212.3 18.0005 212.1 18.0005C211.967 18.0005 211.834 18.0005 211.7 18.0005C209.5 18.0005 207.8 16.5005 207.8 14.5005C207.9 12.5005 209.6 10.9005 211.7 11.0005ZM205 11.0005C205.2 11.0005 205.4 11.0339 205.6 11.1005C205.8 11.1005 205.967 11.1339 206.1 11.2005C206.3 11.2672 206.5 11.3339 206.7 11.4005C206.834 11.5339 206.967 11.6672 207.1 11.8005L206.4 12.7005C206.334 12.6339 206.234 12.5672 206.1 12.5005C206.034 12.4339 205.967 12.3672 205.9 12.3005C205.767 12.2339 205.667 12.2005 205.6 12.2005C205.467 12.2005 205.334 12.2005 205.2 12.2005C204.6 12.2005 204.2 12.5005 204.2 12.9005C204.2 13.3005 204.4 13.5005 205.2 13.8005C206.9 14.3005 207.3 14.8005 207.3 15.9005C207.3 17.2005 206.3 18.1005 204.8 18.1005C204.534 18.1005 204.3 18.0672 204.1 18.0005C203.834 17.9339 203.6 17.8672 203.4 17.8005C203.2 17.6672 203 17.5339 202.8 17.4005C202.6 17.2005 202.434 17.0005 202.3 16.8005L203.2 16.0005C203.5 16.5005 204.1 16.9005 204.8 16.9005C204.934 16.9005 205.034 16.8672 205.1 16.8005C205.234 16.8005 205.367 16.7339 205.5 16.6005C205.567 16.5339 205.634 16.4339 205.7 16.3005C205.767 16.2339 205.8 16.1339 205.8 16.0005V15.9005C205.8 15.8339 205.8 15.7672 205.8 15.7005C205.8 15.6339 205.767 15.5672 205.7 15.5005C205.7 15.4339 205.667 15.4005 205.6 15.4005C205.534 15.3339 205.467 15.2672 205.4 15.2005C205.134 15.0672 204.834 14.9339 204.5 14.8005C203.2 14.4005 202.7 13.9005 202.7 13.0005C202.7 11.8005 203.7 11.0005 205 11.0005ZM221.3 11.1005H222.8L224.8 15.7005L226.7 11.1005H228.3L225.1 18.0005H224.4L221.3 11.1005ZM193.7 11.1005H195.8C198.1 11.1005 199.7 12.5005 199.7 14.5005C199.7 14.7672 199.667 15.0005 199.6 15.2005C199.534 15.4672 199.467 15.7005 199.4 15.9005C199.267 16.1672 199.1 16.4005 198.9 16.6005C198.767 16.7339 198.6 16.9005 198.4 17.1005C197.7 17.6005 196.7 17.9005 195.8 17.8005H193.7V11.1005ZM200.4 11.1005H201.8V17.9005H200.4V11.1005ZM228.9 11.1005H233V12.2005H230.3V13.7005H232.9V14.9005H230.3V16.7005H233V17.8005H228.9V11.1005ZM233.9 11.1005H236C237.6 11.1005 238.6 11.8005 238.6 13.1005C238.7 14.1005 237.9 14.9005 236.9 15.0005L239.2 17.8005H237.5L235.5 15.1005H235.3V17.8005H233.9V11.1005ZM235.3 12.2005V14.2005H235.7C236.7 14.2005 237.1 13.9005 237.1 13.2005C237.1 12.5005 236.7 12.2005 235.8 12.2005H235.3ZM195.1 12.3005V16.7005H195.5C195.634 16.7005 195.8 16.7005 196 16.7005C196.134 16.7005 196.3 16.6672 196.5 16.6005C196.634 16.6005 196.8 16.5339 197 16.4005C197.134 16.3339 197.267 16.2672 197.4 16.2005C197.534 16.0672 197.634 15.9339 197.7 15.8005C197.834 15.6672 197.934 15.5339 198 15.4005C198.067 15.2672 198.1 15.1339 198.1 15.0005C198.167 14.8005 198.2 14.6339 198.2 14.5005C198.2 13.8005 197.9 13.2005 197.4 12.8005C197.267 12.7339 197.134 12.6339 197 12.5005C196.8 12.4339 196.634 12.4005 196.5 12.4005C196.3 12.3339 196.134 12.3005 196 12.3005C195.8 12.3005 195.634 12.3005 195.5 12.3005H195.1Z" fill="black"/>
<path fill-rule="evenodd" clip-rule="evenodd" d="M213.9 14.5004C214 16.5004 215.6 18.0004 217.6 18.1004C219.7 18.2004 221.6 16.6004 221.7 14.5004C221.6 12.5004 219.9 10.9004 217.8 10.9004C215.7 10.9004 214 12.5004 213.9 14.5004ZM243.1 19.6004C241.3 20.8004 227.8 29.7004 204.4 34.0004H239.3C241.4 34.0004 243.1 32.3004 243.1 30.3004V19.6004Z" fill="#F17219"/>
<path d="M128.8 0H177.3C178.8 0 180.1 1.2 180.1 2.7V31.2C180.1 32.7 178.8 33.9 177.3 33.9H128.8C127.2 33.9 126 32.7 126 31.2V2.7C126 1.2 127.2 0 128.8 0Z" fill="#1B366F"/>
<path d="M153.5 26.3576C155.98 24.1132 157.531 20.8695 157.531 17.2644C157.531 13.6597 155.98 10.4186 153.5 8.17383C151.33 6.20071 148.43 5 145.275 5C138.49 5 133 10.4907 133 17.2644C133 24.0407 138.49 29.5315 145.275 29.5315C148.429 29.5318 151.329 28.3285 153.5 26.3576Z" fill="#0066CB"/>
<path d="M153.5 26.3576C155.98 24.1132 157.531 20.8695 157.531 17.2644C157.531 13.6597 155.98 10.4186 153.5 8.17383" fill="#0066CB"/>
<path d="M153.5 26.3576C155.98 24.1132 157.531 20.8695 157.531 17.2644C157.531 13.6597 155.98 10.4186 153.5 8.17383" stroke="#0066CB" stroke-width="0.3097"/>
<path d="M161.744 5C158.57 5 155.67 6.20071 153.5 8.17383C153.062 8.57734 152.643 9.01088 152.26 9.47413H154.74C155.087 9.88514 155.397 10.3187 155.671 10.7721H151.33C151.074 11.188 150.837 11.6216 150.618 12.0701H156.382C156.582 12.4913 156.746 12.9245 156.892 13.3704H150.107C149.961 13.7916 149.834 14.2251 149.743 14.6684H157.257C157.44 15.5054 157.531 16.3748 157.531 17.2644C157.531 18.6267 157.312 19.9375 156.892 21.1607H150.108C150.254 21.6063 150.418 22.0399 150.618 22.4607H156.382C156.162 22.9096 155.944 23.3428 155.67 23.759H151.329C151.603 24.2124 151.931 24.646 152.26 25.0573H154.74C154.357 25.5202 153.938 25.9538 153.5 26.3573C155.67 28.3281 158.57 29.5315 161.744 29.5315C168.51 29.5315 174 24.0407 174 17.2644C174 10.4907 168.51 5 161.744 5Z" fill="#CC0001"/>
<path d="M172.705 24.0763H172.76C172.778 24.0763 172.796 24.0789 172.796 24.071C172.814 24.0612 172.832 24.0462 172.832 24.0315C172.832 24.0162 172.814 24.0015 172.796 23.994C172.796 23.9865 172.76 23.9888 172.76 23.9888H172.705V24.0763ZM172.705 24.2754H172.632V23.9267H172.778C172.814 23.9267 172.832 23.9267 172.869 23.9444C172.887 23.9643 172.905 23.9966 172.905 24.0319C172.905 24.0714 172.887 24.1066 172.85 24.121L172.905 24.2757H172.814L172.778 24.1363H172.704V24.2754H172.705ZM172.76 24.4027C172.924 24.4027 173.07 24.2682 173.07 24.1011C173.07 23.9339 172.924 23.7994 172.76 23.7994C172.596 23.7994 172.468 23.9339 172.468 24.1011C172.468 24.2682 172.596 24.4027 172.76 24.4027ZM172.358 24.1011C172.358 23.8817 172.541 23.7051 172.76 23.7051C172.979 23.7051 173.161 23.8817 173.161 24.1011C173.161 24.3205 172.978 24.4971 172.76 24.4971C172.541 24.4971 172.358 24.3205 172.358 24.1011Z" fill="#231F20"/>
<path d="M143.359 20.679H141.809L142.721 15.898L140.623 20.679H139.346L139.091 15.9254L138.07 20.679H136.666L137.851 14.4609H140.277L140.313 18.3099L141.991 14.4609H144.563L143.359 20.679Z" fill="#231F20"/>
<path d="M160.412 20.6131C159.993 20.728 159.664 20.7776 159.318 20.7776C158.534 20.7776 158.114 20.3865 158.114 19.6667C158.114 19.5247 158.114 19.3729 158.15 19.2129L158.241 18.7173L158.314 18.3187L159.026 14.457H160.539L160.321 15.6179H161.105L160.886 16.8461H160.102L159.701 18.9563C159.682 19.0506 159.682 19.1182 159.682 19.1655C159.682 19.427 159.828 19.5416 160.193 19.5416C160.375 19.5416 160.503 19.5269 160.612 19.4943L160.412 20.6131Z" fill="#231F20"/>
<path d="M154.357 17.2168C154.357 17.857 154.704 18.2958 155.524 18.6268C156.145 18.8811 156.254 18.9559 156.254 19.185C156.254 19.5017 155.98 19.6431 155.36 19.6431C154.904 19.6431 154.467 19.5814 153.974 19.4416L153.773 20.6097L153.828 20.6198L154.12 20.6721C154.211 20.6871 154.339 20.7021 154.521 20.7168C154.886 20.7442 155.178 20.7596 155.378 20.7596C157.002 20.7596 157.75 20.2239 157.75 19.0705C157.75 18.3777 157.44 17.9693 156.673 17.6625C156.017 17.4059 155.944 17.351 155.944 17.1146C155.944 16.8404 156.199 16.701 156.692 16.701C157.002 16.701 157.421 16.7311 157.804 16.7784L158.023 15.6074C157.622 15.5525 157.02 15.5078 156.673 15.5078C154.941 15.5078 154.339 16.2851 154.357 17.2168Z" fill="#231F20"/>
<path d="M147.263 18.4277C147.099 18.41 147.026 18.4055 146.916 18.4055C146.059 18.4055 145.621 18.6644 145.621 19.1749C145.621 19.4887 145.84 19.6907 146.168 19.6907C146.788 19.6911 147.244 19.1753 147.263 18.4277ZM148.302 20.6799H147.025L147.062 20.1543C146.661 20.5702 146.15 20.7671 145.457 20.7671C144.618 20.7671 144.052 20.2039 144.052 19.3868C144.052 18.1538 145.037 17.4362 146.733 17.4362C146.916 17.4362 147.134 17.4483 147.353 17.4757C147.408 17.3089 147.426 17.2367 147.426 17.147C147.426 16.8107 147.153 16.686 146.441 16.686C146.003 16.686 145.511 16.7409 145.164 16.828L144.964 16.8802L144.818 16.9126L145.037 15.7768C145.802 15.5822 146.295 15.5078 146.86 15.5078C148.173 15.5078 148.867 16.021 148.867 16.9925C148.867 17.2416 148.848 17.431 148.739 17.9941L148.429 19.7877L148.374 20.1089L148.338 20.3655L148.301 20.5425V20.6799" fill="#231F20"/>
<path d="M152.57 17.5574C152.57 17.4529 152.588 17.3658 152.588 17.3008C152.588 16.8898 152.315 16.6479 151.859 16.6479C151.366 16.6479 151.02 16.9717 150.892 17.5544L152.57 17.5574ZM153.318 20.567C152.789 20.7067 152.278 20.7737 151.749 20.771C150.035 20.771 149.159 19.9937 149.159 18.5067C149.159 16.7703 150.29 15.4922 151.822 15.4922C153.08 15.4922 153.883 16.2071 153.883 17.3305C153.883 17.7046 153.828 18.0654 153.682 18.5785H150.655C150.636 18.6556 150.636 18.6908 150.636 18.7379C150.636 19.3232 151.092 19.6222 151.986 19.6222C152.533 19.6222 153.026 19.5253 153.573 19.3033L153.318 20.567Z" fill="#231F20"/>
<path d="M168.054 17.7791C168.054 17.2509 167.835 16.7501 167.215 16.7501C166.431 16.7501 165.957 17.672 165.957 18.4839C165.957 19.1692 166.285 19.6301 166.832 19.6197C167.16 19.6197 167.872 19.1688 167.999 18.3814C168.035 18.1999 168.054 17.9985 168.054 17.7791ZM169.604 18.384C169.385 20.0656 168.2 20.8109 166.631 20.8109C164.917 20.8109 164.224 19.7646 164.224 18.4816C164.224 16.6877 165.391 15.4746 167.215 15.4746C168.802 15.4746 169.641 16.4736 169.641 17.7569C169.641 18.068 169.641 18.0902 169.604 18.384Z" fill="#231F20"/>
<path d="M170.115 19.9005H170.169C170.169 19.9005 170.188 19.9005 170.206 19.893C170.224 19.8855 170.224 19.8682 170.224 19.8531C170.224 19.8407 170.224 19.8257 170.206 19.8185C170.206 19.811 170.169 19.811 170.151 19.811H170.115V19.9005ZM170.115 20.0973H170.042V19.7487H170.188C170.206 19.7487 170.243 19.7513 170.279 19.7689C170.297 19.7862 170.315 19.8211 170.315 19.8561C170.315 19.8933 170.297 19.9308 170.261 19.9455L170.315 20.0977H170.224L170.169 19.9605H170.115V20.0973ZM170.169 20.2243C170.334 20.2243 170.462 20.0898 170.462 19.9227C170.462 19.7582 170.334 19.6236 170.169 19.6236C170.006 19.6236 169.86 19.7582 169.86 19.9227C169.86 20.0898 170.006 20.2243 170.169 20.2243ZM169.769 19.9227C169.769 19.7059 169.951 19.5293 170.17 19.5293C170.389 19.5293 170.571 19.7059 170.571 19.9227C170.571 20.1421 170.389 20.3187 170.17 20.3187C169.951 20.3187 169.769 20.1421 169.769 19.9227Z" fill="white"/>
<path d="M143.742 20.3177H142.21L143.121 15.537L141.024 20.3177H139.638L139.382 15.567L138.471 20.3177H137.084L138.27 14.0996H140.659L140.768 17.9512L142.465 14.0996H144.945L143.742 20.3177Z" fill="white"/>
<path d="M160.795 20.2583C160.376 20.3728 160.047 20.4225 159.701 20.4225C158.916 20.4225 158.497 20.0291 158.497 19.3119C158.497 19.1695 158.515 19.0181 158.533 18.8584L158.624 18.3622L158.697 17.961L159.409 14.0996H160.923L160.704 15.2605H161.488L161.269 16.4912H160.485L160.084 18.6012C160.065 18.6935 160.065 18.7631 160.065 18.8108C160.065 19.0726 160.229 19.1845 160.594 19.1845C160.758 19.1845 160.886 19.1695 160.995 19.1369L160.795 20.2583Z" fill="white"/>
<path d="M164.717 16.7128L164.68 16.5534L164.99 15.7611C164.917 15.7536 164.881 15.7513 164.881 15.7464C164.79 15.7288 164.753 15.719 164.735 15.719C164.699 15.7089 164.644 15.7066 164.589 15.7066C164.079 15.7066 163.732 15.9283 163.258 16.5264L163.422 15.627H161.835L160.905 20.6766H162.419C162.619 19.518 162.711 18.8583 162.838 18.3098C163.039 17.4006 163.714 16.987 164.206 17.079C164.261 17.0892 164.297 17.0892 164.37 17.1166L164.461 17.1512L164.717 16.7128Z" fill="#231F20"/>
<path d="M165.246 15.3043C165.118 15.2544 165.1 15.2544 165.082 15.2495C165.008 15.2318 164.954 15.2221 164.954 15.2194C164.899 15.2119 164.844 15.207 164.79 15.207C164.297 15.207 163.933 15.4313 163.458 16.0294L163.604 15.2619H162.218L161.288 20.3191H162.82C163.367 17.2275 163.604 16.6846 164.333 16.6846C164.388 16.6846 164.443 16.6895 164.516 16.697L164.698 16.7342L165.246 15.3043Z" fill="white"/>
<path d="M154.74 16.8604C154.74 17.498 155.104 17.939 155.925 18.2704C156.545 18.5221 156.637 18.5968 156.637 18.8286C156.637 19.1423 156.363 19.2844 155.761 19.2844C155.287 19.2844 154.867 19.222 154.375 19.0849L154.156 20.251L154.229 20.2631L154.503 20.3127C154.594 20.3306 154.74 20.3453 154.922 20.3581C155.287 20.3855 155.56 20.4002 155.761 20.4002C157.402 20.4002 158.15 19.8671 158.15 18.7137C158.15 18.0187 157.84 17.6126 157.056 17.306C156.418 17.0494 156.344 16.9923 156.344 16.7553C156.344 16.4837 156.6 16.3442 157.092 16.3442C157.402 16.3442 157.803 16.3717 158.205 16.419L158.423 15.2483C158.022 15.1935 157.421 15.1484 157.056 15.1484C155.342 15.1488 154.74 15.926 154.74 16.8604Z" fill="white"/>
<path d="M147.591 18.0657C147.426 18.0484 147.353 18.0458 147.244 18.0458C146.387 18.0458 145.949 18.3046 145.949 18.8152C145.949 19.1293 146.15 19.331 146.496 19.331C147.116 19.3314 147.554 18.813 147.591 18.0657ZM148.703 20.3176H147.426L147.463 19.7946C147.08 20.2102 146.551 20.4048 145.857 20.4048C145.037 20.4048 144.471 19.8416 144.471 19.0245C144.471 17.7934 145.456 17.0739 147.152 17.0739C147.316 17.0739 147.535 17.0886 147.772 17.1137C147.809 16.9466 147.827 16.877 147.827 16.785C147.827 16.451 147.553 16.3266 146.842 16.3266C146.404 16.3266 145.911 16.3789 145.583 16.466L145.364 16.5209L145.237 16.5535L145.438 15.4148C146.203 15.2206 146.696 15.1484 147.261 15.1484C148.574 15.1484 149.268 15.6616 149.268 16.6309C149.268 16.88 149.249 17.0693 149.158 17.6322L148.83 19.4287L148.775 19.7499L148.739 20.0065L148.72 20.1805L148.703 20.3176Z" fill="white"/>
<path d="M152.898 17.2019C152.898 17.0948 152.898 17.0099 152.898 16.9427C152.898 16.5317 152.643 16.2924 152.187 16.2924C151.694 16.2924 151.348 16.6136 151.202 17.1993L152.898 17.2019ZM153.701 20.2112C153.19 20.3483 152.679 20.4156 152.15 20.4156C150.436 20.4156 149.542 19.6383 149.542 18.1486C149.542 16.4148 150.673 15.1367 152.205 15.1367C153.463 15.1367 154.266 15.8517 154.266 16.9727C154.266 17.3465 154.211 17.7102 154.083 18.2231H151.055C151.037 18.3004 151.037 18.3354 151.037 18.3824C151.037 18.968 151.493 19.2671 152.368 19.2671C152.916 19.2671 153.408 19.1672 153.955 18.9455L153.701 20.2112Z" fill="white"/>
<path d="M168.419 17.3812C168.419 16.853 168.2 16.3525 167.58 16.3525C166.796 16.3525 166.322 17.2741 166.322 18.0863C166.322 18.7738 166.65 19.2351 167.197 19.2247C167.526 19.2247 168.237 18.7739 168.364 17.9864C168.401 17.802 168.419 17.6006 168.419 17.3812ZM170.006 18.0292C169.768 19.7105 168.601 20.4577 167.033 20.4577C165.3 20.4577 164.607 19.4088 164.607 18.1258C164.607 16.3346 165.792 15.1191 167.617 15.1191C169.203 15.1191 170.042 16.1181 170.042 17.4011C170.042 17.7148 170.042 17.7351 170.006 18.0292Z" fill="white"/>
</svg>
