<svg width="800" height="800" viewBox="0 0 800 800" fill="none" xmlns="http://www.w3.org/2000/svg">
<path d="M399.833 738.17C405.19 738.17 413.894 736.162 422.601 731.473C612.779 624.666 678.404 579.464 678.404 457.254V201.116C678.404 165.96 663.001 154.912 634.877 142.857C595.369 126.452 467.466 80.5801 427.957 66.8529C418.917 63.8386 409.543 61.8301 399.833 61.8301C390.459 61.8301 381.083 64.5086 372.043 66.8529C332.534 78.9058 204.631 126.786 165.123 142.857C136.999 154.576 121.596 165.96 121.596 201.116V457.254C121.596 579.464 187.556 624.33 377.4 731.473C386.106 736.162 394.476 738.17 399.833 738.17ZM399.833 677.233C394.81 677.233 389.119 675.223 379.074 669.197C224.386 575.447 174.833 547.992 174.833 444.866V211.161C174.833 199.777 177.176 195.424 186.217 191.741C237.11 171.652 335.211 136.83 386.774 118.416C391.797 116.406 396.15 115.402 399.833 115.402C403.85 115.402 407.869 116.406 413.226 118.416C464.789 136.83 561.887 173.996 613.783 191.741C622.824 195.089 625.167 199.777 625.167 211.161V444.866C625.167 547.992 575.279 575.112 420.926 669.197C410.881 675.223 405.19 677.233 399.833 677.233ZM357.98 558.371C369.364 558.371 378.404 553.013 385.1 542.299L550.503 282.143C554.856 275.782 558.873 268.08 558.873 260.714C558.873 245.313 545.146 235.603 531.083 235.603C522.377 235.603 514.007 240.96 507.98 251.004L356.64 493.08L278.963 392.299C271.261 382.59 263.56 378.906 254.186 378.906C239.453 378.906 228.069 390.626 228.069 405.691C228.069 413.059 231.083 420.424 235.77 426.786L329.186 542.634C338.56 553.349 346.931 558.371 357.98 558.371Z" fill="#252159"/>
</svg>
