<svg width="207" height="208" viewBox="0 0 207 208" fill="none" xmlns="http://www.w3.org/2000/svg">
<g clip-path="url(#clip0_48_218)">
<mask id="mask0_48_218" style="mask-type:luminance" maskUnits="userSpaceOnUse" x="62" y="59" width="90" height="90">
<path d="M152 59H62V149H152V59Z" fill="white"/>
</mask>
<g mask="url(#mask0_48_218)">
<path d="M100.853 59.0061C98.857 59.1004 97.0459 60.2039 96.0469 61.9347C95.8681 62.2465 95.7186 62.5737 95.5997 62.9129H84.9498C84.6074 62.3185 84.1147 61.8247 83.5216 61.4807C81.6498 60.4003 79.2566 61.0413 78.1762 62.9129C77.4918 64.1029 77.4809 65.5641 78.1473 66.7642L69.8891 80.5274C68.4694 80.5034 67.1484 81.25 66.4369 82.4783C65.3565 84.3501 65.9975 86.7433 67.8692 87.8237C68.4831 88.1766 69.1812 88.3562 69.8891 88.3433L77.0473 100.273C76.2048 101.29 75.6954 102.59 75.6954 104C75.6954 105.41 76.2045 106.711 77.0465 107.728L70.9949 117.814C70.6169 117.736 70.2252 117.695 69.8257 117.695C66.6072 117.695 63.9561 120.347 63.9561 123.565C63.9561 126.784 66.6072 129.435 69.8257 129.435C70.2252 129.435 70.6165 129.394 70.9941 129.316L77.0473 139.403C76.2048 140.42 75.6954 141.72 75.6954 143.131C75.6954 146.349 78.3465 149 81.565 149C84.098 149 86.2739 147.356 87.0884 145.087H95.6076C96.4219 147.356 98.5971 149 101.13 149C104.349 149 107 146.349 107 143.131C107 141.72 106.491 140.42 105.649 139.402L111.701 129.316C112.079 129.394 112.47 129.435 112.869 129.435C115.402 129.435 117.578 127.79 118.393 125.522H129.052C129.75 126.73 131.039 127.476 132.435 127.478C134.596 127.478 136.348 125.726 136.348 123.565C136.346 122.901 136.176 122.249 135.853 121.67L143.004 109.752C143.39 109.83 143.781 109.869 144.174 109.869C147.415 109.869 150.043 107.241 150.043 104C150.043 100.758 147.415 98.13 144.174 98.13C143.782 98.1324 143.391 98.1738 143.008 98.2537L135.856 86.3324C136.178 85.7517 136.348 85.0982 136.348 84.4337C136.348 82.2726 134.596 80.5206 132.435 80.5206C131.039 80.5223 129.749 81.268 129.051 82.4772H116.253C115.555 81.268 114.266 80.5227 112.87 80.5206C112.848 80.5219 112.826 80.5231 112.805 80.5246L105.652 68.6034C105.861 68.3533 106.049 68.086 106.214 67.8047C107.835 64.9974 106.873 61.4076 104.066 59.7868C103.092 59.2244 101.977 58.9533 100.853 59.0061ZM84.9533 66.8264H95.599C96.0645 68.1443 96.985 69.2533 98.1953 69.953C99.4357 70.6659 100.894 70.9015 102.296 70.6147L109.449 82.5366C109.126 83.1175 108.957 83.7709 108.956 84.4354C108.958 85.0986 109.128 85.7505 109.451 86.3301L102.3 98.2498C101.922 98.1719 101.53 98.1311 101.13 98.1311C98.5975 98.1311 96.4223 99.7762 95.608 102.044H87.0879C86.2732 99.7762 84.0972 98.1311 81.5645 98.1311C81.1651 98.1311 80.7742 98.1727 80.3962 98.2505L73.2453 86.3336C73.8992 85.1534 73.8992 83.7196 73.2453 82.5398L81.5028 68.7775C82.9224 68.8014 84.2435 68.0547 84.9549 66.8264H84.9533ZM116.255 86.3919H129.052C129.75 87.6006 131.039 88.3461 132.435 88.3485C132.457 88.3472 132.479 88.3461 132.5 88.3446L139.651 100.263C138.781 101.314 138.306 102.635 138.305 103.999C138.306 105.363 138.783 106.684 139.652 107.734L132.499 119.654C132.478 119.653 132.456 119.652 132.435 119.65C131.039 119.652 129.749 120.398 129.051 121.607H118.393C117.578 119.339 115.402 117.694 112.87 117.694C112.47 117.694 112.079 117.735 111.7 117.813L105.649 107.727C106.492 106.71 107 105.409 107 103.998C107 102.588 106.491 101.287 105.648 100.27L112.806 88.3433C112.827 88.3449 112.848 88.3461 112.87 88.3472C114.266 88.3457 115.557 87.6015 116.255 86.3919ZM81.5645 102.044C82.6685 102.044 83.5211 102.897 83.5211 104.001C83.5211 105.105 82.6685 105.957 81.5645 105.957C80.4607 105.957 79.608 105.105 79.608 104.001C79.608 102.897 80.4611 102.044 81.5645 102.044ZM101.13 102.044C102.234 102.044 103.087 102.897 103.087 104.001C103.087 105.105 102.234 105.957 101.13 105.957C100.026 105.957 99.1735 105.105 99.1735 104.001C99.1735 102.897 100.027 102.044 101.13 102.044ZM87.0879 105.957H95.6071C96.4214 108.226 98.5967 109.87 101.13 109.87C101.529 109.87 101.921 109.83 102.299 109.752L108.351 119.839C107.509 120.856 106.999 122.156 106.999 123.566C106.999 124.976 107.508 126.277 108.351 127.294L102.299 137.38C101.921 137.302 101.529 137.261 101.13 137.261C98.5967 137.261 96.4214 138.906 95.6071 141.174H87.0879C86.2732 138.906 84.0972 137.261 81.5645 137.261C81.1647 137.261 80.7738 137.303 80.3954 137.381L74.3438 127.295C75.1866 126.278 75.695 124.976 75.695 123.566C75.695 122.156 75.1862 120.855 74.3438 119.838L80.3962 109.752C80.7742 109.83 81.1651 109.87 81.5645 109.87C84.098 109.87 86.2736 108.226 87.0879 105.957ZM69.8253 121.61C70.9292 121.61 71.7818 122.462 71.7818 123.566C71.7818 124.67 70.9292 125.523 69.8253 125.523C68.7214 125.523 67.8688 124.67 67.8688 123.566C67.8688 122.462 68.7218 121.61 69.8253 121.61ZM112.869 121.61C113.973 121.61 114.826 122.462 114.826 123.566C114.826 124.67 113.973 125.523 112.869 125.523C111.765 125.523 110.913 124.67 110.913 123.566C110.913 122.462 111.766 121.61 112.869 121.61ZM81.5645 141.175C82.6685 141.175 83.5211 142.028 83.5211 143.132C83.5211 144.236 82.6685 145.088 81.5645 145.088C80.4607 145.088 79.608 144.236 79.608 143.132C79.608 142.028 80.4611 141.175 81.5645 141.175ZM101.13 141.175C102.234 141.175 103.087 142.028 103.087 143.132C103.087 144.236 102.234 145.088 101.13 145.088C100.026 145.088 99.1735 144.236 99.1735 143.132C99.1735 142.028 100.027 141.175 101.13 141.175Z" fill="#262557"/>
</g>
</g>
<path d="M103.095 0.859375C46.157 0.859375 0 47.0174 0 103.954C0 160.892 46.157 207.049 103.095 207.049C160.033 207.049 206.19 160.892 206.19 103.954C206.19 47.0174 160.033 0.859375 103.095 0.859375ZM103.095 201.726C49.184 201.726 5.324 157.866 5.324 103.955C5.324 50.0434 49.184 6.18337 103.095 6.18337C157.007 6.18337 200.867 50.0434 200.867 103.955C200.866 157.866 157.006 201.726 103.095 201.726ZM181.999 61.8104C174.378 45.7054 161.344 32.6714 145.239 25.0504C64.983 -12.9266 -13.785 65.8434 24.19 146.099C31.811 162.204 44.845 175.238 60.95 182.859C141.206 220.835 219.976 142.066 181.999 61.8104ZM178.278 135.099L166.248 137.697L170.737 149.156L158.431 149.36L160.611 161.472L148.499 159.291L148.294 171.597L136.835 167.108L134.237 179.138L123.879 172.493L118.969 183.778L110.118 175.227L103.095 185.333L96.072 175.227L87.22 183.778L82.309 172.493L71.95 179.138L69.352 167.108L57.893 171.597L57.689 159.291L45.577 161.472L47.758 149.36L35.452 149.155L39.941 137.696L27.911 135.098L34.556 124.74L23.271 119.83L31.823 110.979L21.717 103.956L31.823 96.9334L23.271 88.0814L34.556 83.1704L27.911 72.8114L39.941 70.2134L35.453 58.7544L47.759 58.5494L45.578 46.4374L57.69 48.6184L57.894 36.3124L69.353 40.8014L71.951 28.7714L82.31 35.4164L87.22 24.1314L96.071 32.6824L103.094 22.5764L110.117 32.6824L118.969 24.1314L123.88 35.4164L134.239 28.7714L136.837 40.8014L148.296 36.3124L148.5 48.6184L160.613 46.4374L158.432 58.5494L170.738 58.7534L166.249 70.2124L178.279 72.8104L171.634 83.1684L182.919 88.0784L174.368 96.9294L184.474 103.952L174.368 110.975L182.919 119.827L171.634 124.738L178.278 135.099Z" fill="#262557"/>
<defs>
<clipPath id="clip0_48_218">
<rect width="90" height="90" fill="white" transform="translate(62 59)"/>
</clipPath>
</defs>
</svg>
