<svg width="207" height="208" viewBox="0 0 207 208" fill="none" xmlns="http://www.w3.org/2000/svg">
<path d="M103.095 0.859375C46.157 0.859375 0 47.0174 0 103.954C0 160.892 46.157 207.049 103.095 207.049C160.033 207.049 206.19 160.892 206.19 103.954C206.19 47.0174 160.033 0.859375 103.095 0.859375ZM103.095 201.726C49.184 201.726 5.324 157.866 5.324 103.955C5.324 50.0434 49.184 6.18337 103.095 6.18337C157.007 6.18337 200.867 50.0434 200.867 103.955C200.866 157.866 157.006 201.726 103.095 201.726ZM181.999 61.8104C174.378 45.7054 161.344 32.6714 145.239 25.0504C64.983 -12.9266 -13.785 65.8434 24.19 146.099C31.811 162.204 44.845 175.238 60.95 182.859C141.206 220.835 219.976 142.066 181.999 61.8104ZM178.278 135.099L166.248 137.697L170.737 149.156L158.431 149.36L160.611 161.472L148.499 159.291L148.294 171.597L136.835 167.108L134.237 179.138L123.879 172.493L118.969 183.778L110.118 175.227L103.095 185.333L96.072 175.227L87.22 183.778L82.309 172.493L71.95 179.138L69.352 167.108L57.893 171.597L57.689 159.291L45.577 161.472L47.758 149.36L35.452 149.155L39.941 137.696L27.911 135.098L34.556 124.74L23.271 119.83L31.823 110.979L21.717 103.956L31.823 96.9334L23.271 88.0814L34.556 83.1704L27.911 72.8114L39.941 70.2134L35.453 58.7544L47.759 58.5494L45.578 46.4374L57.69 48.6184L57.894 36.3124L69.353 40.8014L71.951 28.7714L82.31 35.4164L87.22 24.1314L96.071 32.6824L103.094 22.5764L110.117 32.6824L118.969 24.1314L123.88 35.4164L134.239 28.7714L136.837 40.8014L148.296 36.3124L148.5 48.6184L160.613 46.4374L158.432 58.5494L170.738 58.7534L166.249 70.2124L178.279 72.8104L171.634 83.1684L182.919 88.0784L174.368 96.9294L184.474 103.952L174.368 110.975L182.919 119.827L171.634 124.738L178.278 135.099Z" fill="#57897C"/>
<path d="M73.2983 129.784C73.8005 116.255 80.1346 102.714 90.8115 92.7662C97.239 86.7764 104.713 82.4389 113.025 79.8758C113.146 79.8377 113.268 79.8102 113.39 79.7746C113.276 79.446 113.183 79.1068 113.058 78.7848C110.401 71.8684 105.434 66.5083 99.2605 63C92.415 65.1241 86.1347 68.8754 80.8468 74.0949C75.5709 79.3117 71.3148 85.9771 68.8397 93.7545C66.3686 101.529 66.0453 109.313 67.5922 116.425C68.6545 121.262 70.5708 125.81 73.2983 129.784Z" fill="#57897C"/>
<path d="M136.552 81.7423C129.163 80.7999 121.54 81.4886 114.215 83.731C106.887 85.9931 99.8059 89.9022 93.5638 95.7197C82.0957 106.406 76.437 120.893 77.4071 134.497C75.7878 135.728 74.1513 136.945 72.4662 138.146C70.764 139.341 69.0842 140.544 66.9878 141.729L69.9755 146.999C72.4585 145.587 74.1947 144.329 75.9797 143.079C77.7372 141.826 79.4155 140.578 81.0717 139.318C94.0489 143.803 110.897 140.277 123.85 128.208C130.877 121.666 135.718 113.517 137.946 105.202C140.194 96.8947 139.748 88.4603 136.552 81.7423ZM127.737 93.8245C124.46 98.6102 119.502 104.32 114.166 109.956C118.907 109.179 122.697 108.473 124.512 108.125C125.275 107.979 125.689 107.896 125.689 107.896C126.419 107.75 127.127 108.224 127.273 108.952C127.419 109.681 126.946 110.39 126.218 110.536C126.205 110.538 119.657 111.846 111.074 113.176C110.128 114.146 109.178 115.108 108.23 116.056C105.341 118.944 102.486 121.698 99.848 124.171C106.337 123.163 112.98 121.813 116.222 121.127C117.51 120.855 118.257 120.689 118.259 120.688C118.985 120.528 119.703 120.985 119.865 121.711C120.025 122.436 119.568 123.155 118.843 123.317C118.823 123.319 106.7 126.017 96.5199 127.374L96.3609 127.395C93.6978 129.821 91.4187 131.807 89.7913 133.138V133.139C89.2171 133.61 88.3679 133.524 87.8974 132.949C87.4269 132.375 87.5123 131.525 88.088 131.055C89.7849 129.667 92.2665 127.497 95.1727 124.834C95.2556 124.25 95.3463 123.514 95.4408 122.656C95.5998 121.215 95.7693 119.464 95.9363 117.625C96.2716 113.949 96.5935 109.923 96.7986 107.291C96.9353 105.538 97.0194 104.408 97.0194 104.405C97.0746 103.664 97.72 103.108 98.4614 103.163C99.2028 103.217 99.7588 103.864 99.7037 104.605C99.7037 104.61 98.9465 114.83 98.2814 121.391C98.2591 121.611 98.2381 121.803 98.2158 122.012C100.775 119.608 103.541 116.94 106.327 114.153C107.31 113.17 108.295 112.172 109.277 111.166C109.679 109.558 109.973 106.992 110.149 104.421C110.345 101.638 110.423 98.8256 110.454 97.0262C110.475 95.8274 110.475 95.0833 110.475 95.0833C110.475 94.3395 111.077 93.7374 111.821 93.7374C112.565 93.7374 113.167 94.3395 113.167 95.0833C113.166 95.107 113.17 101.931 112.592 107.432C112.58 107.539 112.567 107.64 112.555 107.745C117.709 102.28 122.454 96.7855 125.516 92.3046C125.935 91.6908 126.773 91.5345 127.387 91.9537C128 92.3732 128.156 93.2106 127.737 93.8245Z" fill="#57897C"/>
</svg>
