<svg width="130" height="66" viewBox="0 0 130 66" fill="none" xmlns="http://www.w3.org/2000/svg">
<g clip-path="url(#clip0_27_288)">
<path d="M25.8666 11.6471H28.1332C29.3332 11.6471 30.2666 11.5132 31.1999 11.2454C31.9999 10.9777 32.7999 10.5761 33.3332 10.0406C33.8666 9.50507 34.2666 8.96957 34.6666 8.3002C34.9332 7.63083 35.0666 6.82758 35.0666 6.02434C35.0666 5.22109 34.9332 4.55172 34.6666 3.88235C34.3999 3.21298 33.9999 2.67748 33.4666 2.14198C32.9332 1.60649 32.1332 1.33874 31.3332 0.937115C30.3999 0.669366 29.4666 0.535492 28.2666 0.535492H22.3999V17.5375H25.9999V11.6471H25.8666ZM25.8666 3.21298H28.1332C28.6666 3.21298 29.1999 3.21298 29.5999 3.34685C29.9999 3.48073 30.3999 3.6146 30.6666 3.88235C30.9332 4.1501 31.1999 4.41784 31.3332 4.81947C31.4666 5.22109 31.4666 5.48884 31.4666 6.02434C31.4666 6.96146 31.1999 7.63083 30.6666 8.16632C30.1332 8.70182 29.3332 8.96957 28.1332 8.96957H25.8666V3.21298V3.21298Z" fill="#252159"/>
<path d="M40.1336 8.8357C40.5336 8.43408 40.9336 8.16633 41.3336 8.03245C41.7336 7.89858 42.1336 7.76471 42.6669 7.76471C43.3336 7.76471 43.7336 7.89858 44.1336 8.3002C44.4002 8.70183 44.6669 9.23732 44.6669 9.90669V17.5375H48.0002V9.77282C48.0002 9.10345 47.8669 8.43408 47.7336 7.89858C47.6002 7.36308 47.3336 6.82759 46.9336 6.42596C46.5336 6.02434 46.1336 5.75659 45.6002 5.48884C45.0669 5.2211 44.5336 5.08722 43.8669 5.08722C43.4669 5.08722 43.2002 5.08722 42.8002 5.2211C42.5336 5.2211 42.1336 5.35497 41.8669 5.48884C41.6002 5.62272 41.3336 5.75659 41.0669 5.89047C40.8002 6.02434 40.5336 6.29209 40.4002 6.42596V0H37.0669V17.4037H40.4002V8.8357H40.1336Z" fill="#252159"/>
<path d="M67.7334 14.9939C67.6 15.1278 67.4667 15.2617 67.2 15.2617C66.9334 15.3955 66.6667 15.3955 66.4 15.3955C66 15.3955 65.6 15.3955 65.3334 15.2617C65.0667 15.1278 64.8 14.9939 64.5334 14.9939C64.4 14.86 64.1334 14.7262 64 14.7262C63.8667 14.5923 63.6 14.5923 63.4667 14.5923C63.2 14.5923 63.0667 14.5923 62.9334 14.7262C62.8 14.86 62.6667 14.86 62.6667 14.9939L61.8667 16.1988C62.1334 16.4665 62.4 16.6004 62.6667 16.7343C62.9334 16.8682 63.3334 17.1359 63.7334 17.2698C64.1334 17.4037 64.5334 17.5375 64.9334 17.5375C65.3334 17.6714 65.7334 17.6714 66.1334 17.6714C66.9334 17.6714 67.7334 17.5375 68.2667 17.4037C68.9334 17.1359 69.4667 16.8682 69.8667 16.6004C70.2667 16.1988 70.6667 15.7972 70.8 15.2617C71.0667 14.7262 71.0667 14.1907 71.0667 13.6552C71.0667 13.1197 70.9334 12.7181 70.8 12.4503C70.8 12.0487 70.6667 11.6471 70.4 11.5132C70.1334 11.2454 69.8667 11.1116 69.4667 10.8438C69.0667 10.7099 68.8 10.5761 68.4 10.4422C68 10.3083 67.6 10.1744 67.3334 10.0406C66.9334 9.9067 66.6667 9.77282 66.4 9.63895C66.1334 9.50508 65.8667 9.3712 65.7334 9.23733C65.4667 9.10345 65.3334 8.96958 65.3334 8.70183C65.3334 8.30021 65.4667 8.03246 65.7334 7.89859C66 7.63084 66.4 7.63084 66.9334 7.63084C67.3334 7.63084 67.6 7.63084 67.8667 7.76471C68.1334 7.89859 68.4 7.89859 68.5334 8.03246C68.9334 8.03246 69.0667 8.03246 69.3334 8.16633C69.4667 8.30021 69.6 8.30021 69.8667 8.30021C70 8.30021 70.1334 8.30021 70.2667 8.16633C70.4 8.16633 70.4 8.03246 70.5334 7.89859L71.2 6.69372C70.8 6.29209 70.1334 5.89047 69.4667 5.62272C68.8 5.35497 68 5.2211 67.0667 5.2211C66.2667 5.2211 65.6 5.35497 64.9334 5.48885C64.4 5.7566 63.8667 6.02435 63.4667 6.29209C63.0667 6.69372 62.6667 7.09534 62.5334 7.49696C62.2667 7.89859 62.2667 8.43408 62.2667 8.96958C62.2667 9.50508 62.4 10.0406 62.5334 10.3083C62.6667 10.7099 62.9334 11.1116 63.2 11.2454C63.4667 11.5132 63.7334 11.7809 64.1334 11.9148C64.5334 12.0487 64.8 12.1826 65.2 12.3164C65.6 12.4503 66 12.5842 66.2667 12.7181C66.6667 12.8519 66.9334 12.9858 67.2 13.1197C67.4667 13.2536 67.7334 13.3874 67.8667 13.5213C68 13.6552 68.1334 13.9229 68.1334 14.1907C68.1334 14.3246 68.1334 14.4584 68 14.7262C68 14.86 67.8667 14.9939 67.7334 14.9939Z" fill="#252159"/>
<path d="M73.5997 3.34686C73.7331 3.48073 73.9997 3.6146 74.2664 3.74848C74.5331 3.88235 74.7997 3.88235 75.0664 3.88235C75.3331 3.88235 75.5998 3.88235 75.8664 3.74848C76.1331 3.6146 76.3998 3.48073 76.5331 3.34686C76.6664 3.21298 76.9331 2.94523 76.9331 2.67748C77.0664 2.40974 77.0664 2.14199 77.0664 1.87424C77.0664 1.60649 77.0664 1.33874 76.9331 1.07099C76.7998 0.803246 76.6664 0.669371 76.5331 0.401623C76.3998 0.267749 76.1331 0.133874 75.8664 0C75.5998 0 75.3331 0 75.0664 0C74.7997 0 74.5331 0 74.2664 0.133874C73.9997 0.267749 73.8664 0.401623 73.5997 0.535497C73.4664 0.669371 73.3331 0.93712 73.1997 1.20487C73.0664 1.47262 73.0664 1.74037 73.0664 2.00811C73.0664 2.27586 73.0664 2.54361 73.1997 2.81136C73.3331 2.94523 73.4664 3.21298 73.5997 3.34686Z" fill="#252159"/>
<path d="M76.8001 5.35498H73.4668V17.4037H76.8001V5.35498Z" fill="#252159"/>
<path d="M80.6664 16.0649C81.1998 16.6004 81.7331 17.002 82.3998 17.2698C83.0664 17.5375 83.8664 17.6714 84.5331 17.6714C84.9331 17.6714 85.4664 17.6714 85.8664 17.5375C86.2664 17.5375 86.7998 17.4037 87.1998 17.2698C87.5998 17.1359 87.9998 16.8682 88.3998 16.6004C88.7998 16.3327 89.1998 16.0649 89.4664 15.6633L88.5331 14.4584C88.3998 14.3245 88.1331 14.1907 87.8664 14.1907C87.7331 14.1907 87.5998 14.1907 87.4664 14.3245C87.3331 14.3245 87.1998 14.4584 87.1998 14.4584C87.0664 14.5923 86.9331 14.5923 86.7998 14.7262C86.6664 14.86 86.5331 14.86 86.3998 14.9939C86.2664 15.1278 85.9998 15.1278 85.8664 15.1278C85.5998 15.1278 85.3331 15.2617 85.0664 15.2617C84.1331 15.2617 83.4664 14.9939 82.9331 14.3245C82.3998 13.6552 82.1331 12.7181 82.1331 11.5132C82.1331 10.9777 82.1331 10.4422 82.2664 9.90669C82.6664 9.3712 82.7998 8.96957 83.0664 8.70183C83.3331 8.3002 83.5998 8.03245 83.9998 7.89858C84.3998 7.76471 84.7998 7.63083 85.3331 7.63083C85.7331 7.63083 85.9998 7.63083 86.2664 7.76471C86.5331 7.89858 86.7998 7.89858 86.9331 8.03245C87.0664 8.16633 87.3331 8.3002 87.4664 8.3002C87.5998 8.43408 87.7331 8.43408 87.8664 8.43408C87.9998 8.43408 88.1331 8.43408 88.2664 8.3002C88.3998 8.3002 88.3998 8.16633 88.5331 8.03245L89.4664 6.82758C88.9331 6.29209 88.2664 5.89046 87.5998 5.48884C86.9331 5.22109 85.9998 5.08722 85.0664 5.08722C84.1331 5.08722 83.1998 5.22109 82.3998 5.62272C81.5998 5.89046 81.0664 6.42596 80.5331 6.96146C79.9998 7.49696 79.5998 8.16633 79.3331 8.96957C79.0664 9.77282 78.9331 10.5761 78.9331 11.3793C78.9331 12.3164 79.0664 13.2536 79.3331 14.0568C79.7331 14.86 80.1331 15.5294 80.6664 16.0649Z" fill="#252159"/>
<path d="M91.4666 16.8682C91.7332 17.1359 92.1332 17.4037 92.6666 17.5375C93.0666 17.6714 93.5999 17.8053 94.1332 17.8053C94.5332 17.8053 94.9332 17.8053 95.3332 17.6714C95.7332 17.5375 95.9999 17.5375 96.3999 17.4037C96.6666 17.2698 97.0666 17.1359 97.3332 16.8682C97.5999 16.6004 97.8666 16.4665 98.2666 16.1988L98.5332 17.002C98.6666 17.2698 98.7999 17.4037 98.9332 17.5375C99.0666 17.6714 99.3332 17.6714 99.5999 17.6714H101.067V9.9067C101.067 9.23733 100.933 8.56796 100.8 8.03246C100.533 7.49696 100.267 6.96147 99.8666 6.55984C99.4666 6.15822 98.9333 5.7566 98.3999 5.62272C97.8666 5.35497 97.1999 5.2211 96.3999 5.2211C95.3332 5.2211 94.3999 5.35497 93.5999 5.7566C92.6666 6.02435 91.8666 6.55984 91.1999 7.22921L91.7332 8.30021C91.8666 8.43408 91.9999 8.56796 92.1332 8.70183C92.2666 8.8357 92.5332 8.8357 92.6666 8.8357C92.9332 8.8357 93.1999 8.8357 93.3332 8.70183C93.5999 8.56796 93.7332 8.43408 93.9999 8.30021C94.1332 8.03246 94.3999 7.89858 94.6666 7.89858C94.9332 7.76471 95.3332 7.76471 95.8666 7.76471C96.5332 7.76471 96.9332 7.89858 97.3332 8.30021C97.5999 8.70183 97.8666 9.23733 97.8666 9.9067V10.5761C96.3999 10.5761 95.1999 10.7099 94.2666 10.9777C93.3332 11.1116 92.5332 11.5132 91.9999 11.7809C91.4666 12.1826 91.0666 12.5842 90.7999 12.9858C90.5332 13.3874 90.3999 13.9229 90.3999 14.3245C90.3999 14.86 90.5332 15.3955 90.6666 15.7972C90.7999 16.1988 91.0666 16.6004 91.4666 16.8682ZM93.7332 13.5213C93.8666 13.3874 94.1332 13.1197 94.3999 12.9858C94.6666 12.8519 95.1999 12.7181 95.7332 12.5842C96.2666 12.4503 96.9332 12.4503 97.7332 12.3164V14.1907C97.3332 14.5923 96.9332 14.86 96.5332 15.1278C96.1332 15.2617 95.5999 15.3955 95.0666 15.3955C94.5332 15.3955 94.2666 15.2617 93.9999 15.1278C93.7332 14.9939 93.5999 14.5923 93.5999 14.1907C93.5999 13.9229 93.5999 13.7891 93.7332 13.5213Z" fill="#252159"/>
<path d="M106.933 0H103.6V17.4037H106.933V0Z" fill="#252159"/>
<path d="M114.267 20.7505V37.0832C113.867 37.0832 113.2 37.0832 112.533 37.0832C112.533 37.0832 112.267 37.0832 111.867 36.9493C111.067 36.6815 107.2 32.1298 103.067 25.7039L103.2 37.0832H100.133V20.7505H82.9333C83.4667 21.1521 83.7333 21.6876 83.7333 22.2231C83.7333 23.2941 82.6667 24.0974 81.4667 24.0974C80.2667 24.0974 79.2 23.2941 79.2 22.2231C79.2 21.5538 79.4667 21.0183 80 20.7505H67.0667C67.6 21.1521 67.8667 21.6876 67.8667 22.2231C67.8667 23.2941 66.8 24.0974 65.6 24.0974C64.4 24.0974 63.3333 23.2941 63.3333 22.2231C63.3333 21.5538 63.6 21.0183 64.1333 20.7505H54.6667L61.3333 5.48885H58.6667C58.4 5.48885 58.2667 5.48885 58.1333 5.62273C58 5.7566 57.8667 5.89048 57.7333 6.02435L55.6 11.7809C55.4667 12.1826 55.2 12.7181 55.0667 13.1197C55.0667 12.8519 54.9333 12.7181 54.9333 12.4503C54.8 12.1826 54.8 12.0487 54.6667 11.7809L52.2667 6.02435C52.2667 5.89048 52.1333 5.7566 52 5.62273C52.1333 5.48885 52 5.35498 51.7333 5.35498H48.8L53.7333 16.4665L51.7333 20.7505H28.8V37.0832C28.4 37.0832 27.7333 37.0832 27.0667 37.0832C27.0667 37.0832 26.8 37.0832 26.4 36.9493C25.6 36.6815 21.7333 32.1298 17.6 25.7039L17.7333 37.0832H14.6667V20.7505H0C8.26667 68.0081 65.8667 66 65.8667 66C128.8 63.0548 130 20.7505 130 20.7505H114.267ZM42.4 37.0832H40.5333C40.1333 37.0832 39.8667 36.9493 39.7333 36.5477L39.4667 35.7444C39.2 36.0122 38.9333 36.1461 38.8 36.4138C38.5333 36.5477 38.2667 36.8154 38 36.9493C37.7333 37.0832 37.4667 37.217 37.0667 37.217C36.8 37.3509 36.4 37.3509 36 37.3509C35.3333 37.3509 34.8 37.217 34.2667 36.9493C33.7333 36.6815 33.3333 36.4138 33.0667 36.0122C32.8 35.6106 32.5333 35.0751 32.2667 34.5396C32.1333 34.0041 32 33.3347 32 32.6653V25.0345H35.0667V32.6653C35.0667 33.3347 35.2 33.8702 35.4667 34.2718C35.7333 34.6734 36.2667 34.8073 36.8 34.8073C37.2 34.8073 37.6 34.6734 38 34.5396C38.4 34.4057 38.8 34.0041 39.0667 33.7363V25.0345H42.1333V37.0832H42.4ZM51.8667 37.0832C51.3333 37.217 50.6667 37.3509 50 37.3509C49.4667 37.3509 48.9333 37.217 48.5333 37.0832C48.1333 36.9493 47.7333 36.6816 47.4667 36.4138C47.2 36.1461 46.9333 35.7444 46.8 35.3428C46.6667 34.9412 46.5333 34.5396 46.5333 34.0041V27.712H45.3333C45.2 27.712 44.9333 27.712 44.9333 27.5781C44.8 27.4442 44.8 27.3104 44.8 27.0426V25.8377L46.6667 25.4361L47.3333 22.357C47.4667 21.9554 47.7333 21.8215 48.1333 21.8215H49.8667V25.4361H53.0667V27.5781H49.8667V33.6024C49.8667 33.8702 50 34.1379 50.1333 34.4057C50.2667 34.5396 50.5333 34.6734 50.8 34.6734C50.9333 34.6734 51.0667 34.6734 51.2 34.6734C51.3333 34.6734 51.4667 34.5396 51.4667 34.5396C51.6 34.5396 51.6 34.4057 51.7333 34.4057C51.8667 34.4057 51.8667 34.4057 52 34.4057C52.1333 34.4057 52.1333 34.4057 52.2667 34.4057C52.2667 34.4057 52.4 34.5396 52.4 34.6734L53.4667 36.1461C52.9333 36.5477 52.4 36.8154 51.8667 37.0832ZM62 27.712C62 27.8459 61.8667 27.9797 61.8667 27.9797C61.7333 27.9797 61.7333 28.1136 61.6 28.1136C61.4667 28.1136 61.3333 28.1136 61.0667 28.1136C60.8 28.1136 60.6667 28.1136 60.4 28.1136C60.1333 28.1136 59.8667 28.1136 59.6 28.2475C59.3333 28.3813 59.2 28.5152 58.9333 28.6491C58.8 28.783 58.5333 29.0507 58.4 29.1846C58.2667 29.4523 58.1333 29.7201 58 29.9878V37.217H54.8V25.4361H56.6667C56.9333 25.4361 57.2 25.4361 57.3333 25.57C57.4667 25.7039 57.6 25.8377 57.6 26.1055L57.7333 27.3104C58.1333 26.641 58.5333 26.1055 59.0667 25.7039C59.6 25.3022 60.1333 25.1684 60.8 25.1684C61.3333 25.1684 61.7333 25.3022 62.1333 25.57L62 27.712ZM67.6 37.0832H64.1333V25.57H67.6V37.0832ZM83.3333 37.0832H80.1333V27.4442H74.8V33.6024C74.8 33.8702 74.9333 34.1379 75.0667 34.4057C75.2 34.5396 75.4667 34.6734 75.7333 34.6734C75.8667 34.6734 76 34.6734 76.1333 34.6734C76.2667 34.6734 76.4 34.5396 76.4 34.5396C76.5333 34.5396 76.5333 34.4057 76.6667 34.4057C76.6667 34.4057 76.8 34.4057 76.9333 34.4057C77.0667 34.4057 77.0667 34.4057 77.2 34.4057C77.2 34.4057 77.3333 34.5396 77.3333 34.6734L78.2667 36.1461C77.8667 36.5477 77.3333 36.8154 76.8 36.9493C76.2667 37.0832 75.6 37.217 75.0667 37.217C74.5333 37.217 74 37.0832 73.6 36.9493C73.2 36.8154 72.8 36.5477 72.5333 36.2799C72.2667 36.0122 72 35.6106 71.8667 35.2089C71.7333 34.8073 71.6 34.2718 71.6 33.8702V27.4442H70.4C70.2667 27.4442 70.1333 27.4442 70 27.3104C69.8667 27.1765 69.8667 27.0426 69.8667 26.7749V25.57L71.7333 25.1684L72.4 22.0893C72.5333 21.6876 72.6667 21.5538 73.0667 21.5538H74.8V25.1684H83.3333V37.0832V37.0832ZM97.4667 33.7363C97.2 34.5396 96.8 35.0751 96.2667 35.6106C95.7333 36.1461 95.0667 36.5477 94.4 36.8154C93.6 37.0832 92.8 37.217 91.8667 37.217C90.9333 37.217 90.1333 37.0832 89.3333 36.8154C88.5333 36.5477 88 36.1461 87.4667 35.6106C86.9333 35.0751 86.5333 34.4057 86.2667 33.7363C86 32.9331 85.8667 32.1298 85.8667 31.1927C85.8667 30.2556 86 29.4523 86.2667 28.6491C86.5333 27.8458 86.9333 27.3104 87.4667 26.7749C88 26.2394 88.6667 25.8377 89.3333 25.57C90.1333 25.3022 90.9333 25.1684 91.8667 25.1684C92.8 25.1684 93.6 25.3022 94.4 25.57C95.2 25.8377 95.7333 26.2394 96.2667 26.7749C96.8 27.3104 97.2 27.9797 97.4667 28.6491C97.7333 29.4523 97.8667 30.2556 97.8667 31.1927C97.8667 32.1298 97.7333 32.9331 97.4667 33.7363Z" fill="#252159"/>
<path d="M91.7331 27.4442C90.7998 27.4442 90.1331 27.712 89.5998 28.3813C89.1998 29.0507 88.9331 29.9878 88.9331 31.1927C88.9331 32.3976 89.1998 33.3347 89.5998 34.0041C89.9998 34.6734 90.7998 34.9412 91.7331 34.9412C92.6664 34.9412 93.3331 34.6734 93.7331 34.0041C94.1331 33.3347 94.3998 32.3976 94.3998 31.1927C94.3998 29.9878 94.1331 29.0507 93.7331 28.3813C93.3331 27.712 92.6664 27.4442 91.7331 27.4442Z" fill="#252159"/>
<path d="M25.8668 20.7505H17.6001L25.8668 31.4605V20.7505Z" fill="#252159"/>
<path d="M111.2 20.7505H103.067L111.334 31.4605L111.2 20.7505Z" fill="#252159"/>
</g>
<defs>
<clipPath id="clip0_27_288">
<rect width="130" height="66" fill="white"/>
</clipPath>
</defs>
</svg>
