<svg width="134" height="68" viewBox="0 0 134 68" fill="none" xmlns="http://www.w3.org/2000/svg">
<path d="M26.5178 11.8263H28.8416C30.0718 11.8263 31.0286 11.6904 31.9855 11.4185C32.8056 11.1467 33.6258 10.7388 34.1725 10.1951C34.7193 9.65133 35.1294 9.10758 35.5394 8.42788C35.8128 7.74819 35.9495 6.93256 35.9495 6.11693C35.9495 5.3013 35.8128 4.62161 35.5394 3.94192C35.2661 3.26222 34.856 2.71847 34.3092 2.17472C33.7625 1.63096 32.9423 1.35909 32.1222 0.951272C31.1653 0.679395 30.2085 0.543457 28.9783 0.543457H22.9639V17.8076H26.6545V11.8263H26.5178ZM26.5178 3.26222H28.8416C29.3883 3.26222 29.9351 3.26222 30.3452 3.39816C30.7553 3.5341 31.1653 3.67004 31.4387 3.94192C31.7121 4.21379 31.9855 4.48567 32.1222 4.89349C32.2589 5.3013 32.2589 5.57318 32.2589 6.11693C32.2589 7.0685 31.9855 7.74819 31.4387 8.29195C30.8919 8.8357 30.0718 9.10758 28.8416 9.10758H26.5178V3.26222Z" fill="white"/>
<path d="M41.1439 8.97193C41.554 8.56412 41.964 8.29224 42.3741 8.1563C42.7842 8.02037 43.1943 7.88443 43.741 7.88443C44.4245 7.88443 44.8345 8.02036 45.2446 8.42818C45.518 8.836 45.7914 9.37975 45.7914 10.0594V17.8079H49.2087V9.9235C49.2087 9.24381 49.072 8.56412 48.9353 8.02037C48.7986 7.47661 48.5252 6.93286 48.1151 6.52504C47.7051 6.11723 47.295 5.84535 46.7482 5.57347C46.2015 5.3016 45.6547 5.16566 44.9712 5.16566C44.5612 5.16566 44.2878 5.16566 43.8777 5.3016C43.6043 5.3016 43.1943 5.43754 42.9209 5.57347C42.6475 5.70941 42.3741 5.84535 42.1007 5.98129C41.8273 6.11723 41.554 6.3891 41.4173 6.52504V0H38V17.672H41.4173V8.97193H41.1439Z" fill="white"/>
<path d="M69.4392 15.2248C69.3025 15.3607 69.1658 15.4967 68.8924 15.4967C68.6191 15.6326 68.3457 15.6326 68.0723 15.6326C67.6622 15.6326 67.2521 15.6326 66.9788 15.4967C66.7054 15.3607 66.432 15.2248 66.1586 15.2248C66.0219 15.0888 65.7485 14.9529 65.6119 14.9529C65.4752 14.817 65.2018 14.817 65.0651 14.817C64.7917 14.817 64.655 14.817 64.5183 14.9529C64.3816 15.0888 64.2449 15.0888 64.2449 15.2248L63.4248 16.4482C63.6982 16.7201 63.9716 16.856 64.2449 16.992C64.5183 17.1279 64.9284 17.3998 65.3385 17.5357C65.7485 17.6717 66.1586 17.8076 66.5687 17.8076C66.9788 17.9435 67.3888 17.9435 67.7989 17.9435C68.6191 17.9435 69.4392 17.8076 69.986 17.6717C70.6694 17.3998 71.2162 17.1279 71.6263 16.856C72.0363 16.4482 72.4464 16.0404 72.5831 15.4967C72.8565 14.9529 72.8565 14.4091 72.8565 13.8654C72.8565 13.3216 72.7198 12.9138 72.5831 12.6419C72.5831 12.2341 72.4464 11.8263 72.173 11.6904C71.8996 11.4185 71.6263 11.2826 71.2162 11.0107C70.8061 10.8747 70.5327 10.7388 70.1227 10.6029C69.7126 10.4669 69.3025 10.331 69.0291 10.1951C68.6191 10.0591 68.3457 9.92318 68.0723 9.78724C67.7989 9.6513 67.5255 9.51536 67.3888 9.37942C67.1155 9.24348 66.9788 9.10755 66.9788 8.83567C66.9788 8.42785 67.1155 8.15598 67.3888 8.02004C67.6622 7.74816 68.0723 7.74816 68.6191 7.74816C69.0291 7.74816 69.3025 7.74816 69.5759 7.8841C69.8493 8.02004 70.1227 8.02004 70.2594 8.15598C70.6694 8.15598 70.8061 8.15598 71.0795 8.29191C71.2162 8.42785 71.3529 8.42785 71.6263 8.42785C71.763 8.42785 71.8996 8.42785 72.0363 8.29191C72.173 8.29191 72.173 8.15598 72.3097 8.02004L72.9932 6.79659C72.5831 6.38878 71.8996 5.98096 71.2162 5.70908C70.5327 5.43721 69.7126 5.30127 68.7557 5.30127C67.9356 5.30127 67.2522 5.43721 66.5687 5.57315C66.0219 5.84502 65.4752 6.1169 65.0651 6.38878C64.655 6.79659 64.245 7.20441 64.1083 7.61222C63.8349 8.02004 63.8349 8.56379 63.8349 9.10755C63.8349 9.6513 63.9716 10.1951 64.1083 10.4669C64.245 10.8747 64.5183 11.2826 64.7917 11.4185C65.0651 11.6904 65.3385 11.9623 65.7485 12.0982C66.1586 12.2341 66.432 12.3701 66.8421 12.506C67.2522 12.6419 67.6622 12.7779 67.9356 12.9138C68.3457 13.0498 68.6191 13.1857 68.8924 13.3216C69.1658 13.4576 69.4392 13.5935 69.5759 13.7295C69.7126 13.8654 69.8493 14.1373 69.8493 14.4091C69.8493 14.5451 69.8493 14.681 69.7126 14.9529C69.7126 15.0888 69.5759 15.2248 69.4392 15.2248Z" fill="white"/>
<path d="M75.453 3.39846C75.5897 3.5344 75.8631 3.67034 76.1365 3.80628C76.4099 3.94221 76.6832 3.94221 76.9566 3.94221C77.23 3.94221 77.5034 3.94221 77.7768 3.80628C78.0502 3.67034 78.3235 3.5344 78.4602 3.39846C78.5969 3.26252 78.8703 2.99065 78.8703 2.71877C79.007 2.44689 79.007 2.17501 79.007 1.90314C79.007 1.63126 79.007 1.35938 78.8703 1.08751C78.7336 0.81563 78.5969 0.679692 78.4602 0.407815C78.3235 0.271877 78.0502 0.135938 77.7768 0C77.5034 0 77.23 0 76.9566 0C76.6832 0 76.4099 0 76.1365 0.135938C75.8631 0.271877 75.7264 0.407815 75.453 0.543754C75.3163 0.679692 75.1796 0.951569 75.0429 1.22345C74.9063 1.49532 74.9062 1.7672 74.9062 2.03908C74.9062 2.31095 74.9063 2.58283 75.0429 2.85471C75.1796 2.99065 75.3163 3.26252 75.453 3.39846Z" fill="white"/>
<path d="M78.7337 5.4375H75.3164V17.672H78.7337V5.4375Z" fill="white"/>
<path d="M82.6979 16.3125C83.2446 16.8562 83.7914 17.264 84.4749 17.5359C85.1583 17.8078 85.9785 17.9437 86.6619 17.9437C87.072 17.9437 87.6188 17.9437 88.0288 17.8078C88.4389 17.8078 88.9857 17.6719 89.3957 17.5359C89.8058 17.4 90.2159 17.1281 90.626 16.8562C91.036 16.5844 91.4461 16.3125 91.7195 15.9047L90.7626 14.6812C90.626 14.5453 90.3526 14.4093 90.0792 14.4093C89.9425 14.4093 89.8058 14.4093 89.6691 14.5453C89.5324 14.5453 89.3957 14.6812 89.3957 14.6812C89.259 14.8172 89.1223 14.8172 88.9857 14.9531C88.849 15.089 88.7123 15.089 88.5756 15.225C88.4389 15.3609 88.1655 15.3609 88.0288 15.3609C87.7554 15.3609 87.4821 15.4968 87.2087 15.4968C86.2518 15.4968 85.5684 15.225 85.0216 14.5453C84.4749 13.8656 84.2015 12.914 84.2015 11.6906C84.2015 11.1468 84.2015 10.6031 84.3382 10.0593C84.7482 9.51556 84.8849 9.10774 85.1583 8.83586C85.4317 8.42805 85.7051 8.15617 86.1152 8.02023C86.5252 7.8843 86.9353 7.74836 87.4821 7.74836C87.8921 7.74836 88.1655 7.74836 88.4389 7.8843C88.7123 8.02023 88.9857 8.02023 89.1223 8.15617C89.259 8.29211 89.5324 8.42805 89.6691 8.42805C89.8058 8.56399 89.9425 8.56399 90.0792 8.56399C90.2159 8.56399 90.3526 8.56399 90.4893 8.42805C90.6259 8.42805 90.626 8.29211 90.7626 8.15617L91.7195 6.93273C91.1727 6.38897 90.4893 5.98116 89.8058 5.57334C89.1223 5.30147 88.1655 5.16553 87.2087 5.16553C86.2518 5.16553 85.295 5.30147 84.4749 5.70928C83.6547 5.98116 83.108 6.52491 82.5612 7.06867C82.0144 7.61242 81.6044 8.29211 81.331 9.10774C81.0576 9.92337 80.9209 10.739 80.9209 11.5546C80.9209 12.5062 81.0576 13.4578 81.331 14.2734C81.741 15.089 82.1511 15.7687 82.6979 16.3125Z" fill="white"/>
<path d="M93.7703 17.1279C94.0437 17.3998 94.4537 17.6717 95.0005 17.8076C95.4106 17.9435 95.9573 18.0795 96.5041 18.0795C96.9142 18.0795 97.3243 18.0795 97.7343 17.9435C98.1444 17.8076 98.4178 17.8076 98.8279 17.6717C99.1013 17.5357 99.5113 17.3998 99.7847 17.1279C100.058 16.856 100.331 16.7201 100.742 16.4482L101.015 17.2638C101.152 17.5357 101.288 17.6717 101.425 17.8076C101.562 17.9435 101.835 17.9435 102.108 17.9435H103.612V10.0591C103.612 9.37942 103.475 8.69973 103.339 8.15598C103.065 7.61222 102.792 7.06847 102.382 6.66065C101.972 6.25284 101.425 5.84502 100.878 5.70908C100.331 5.43721 99.648 5.30127 98.8279 5.30127C97.7343 5.30127 96.7775 5.43721 95.9573 5.84502C95.0005 6.1169 94.1804 6.66065 93.4969 7.34035L94.0437 8.42785C94.1804 8.56379 94.317 8.69973 94.4537 8.83567C94.5904 8.97161 94.8638 8.97161 95.0005 8.97161C95.2739 8.97161 95.5473 8.97161 95.684 8.83567C95.9574 8.69973 96.094 8.56379 96.3674 8.42785C96.5041 8.15598 96.7775 8.02004 97.0509 8.02004C97.3243 7.8841 97.7343 7.8841 98.2811 7.8841C98.9646 7.8841 99.3746 8.02004 99.7847 8.42785C100.058 8.83567 100.331 9.37942 100.331 10.0591V10.7388C98.8279 10.7388 97.5976 10.8747 96.6408 11.1466C95.684 11.2826 94.8638 11.6904 94.3171 11.9623C93.7703 12.3701 93.3602 12.7779 93.0868 13.1857C92.8134 13.5935 92.6768 14.1373 92.6768 14.5451C92.6768 15.0888 92.8134 15.6326 92.9501 16.0404C93.0868 16.4482 93.3602 16.856 93.7703 17.1279ZM96.094 13.7295C96.2307 13.5935 96.5041 13.3216 96.7775 13.1857C97.0509 13.0498 97.5977 12.9138 98.1444 12.7779C98.6912 12.6419 99.3746 12.6419 100.195 12.506V14.4091C99.7847 14.817 99.3746 15.0888 98.9646 15.3607C98.5545 15.4967 98.0077 15.6326 97.461 15.6326C96.9142 15.6326 96.6408 15.4967 96.3674 15.3607C96.094 15.2248 95.9573 14.817 95.9573 14.4091C95.9573 14.1373 95.9574 14.0013 96.094 13.7295Z" fill="white"/>
<path d="M109.626 0H106.209V17.672H109.626V0Z" fill="white"/>
<path d="M117.144 21.0704V37.6549C116.734 37.6549 116.051 37.6549 115.367 37.6549C115.367 37.6549 115.094 37.6549 114.684 37.519C113.864 37.2471 109.9 32.6252 105.662 26.1001L105.799 37.6549H102.655V21.0704H85.0218C85.5685 21.4782 85.8419 22.022 85.8419 22.5657C85.8419 23.6532 84.7484 24.4689 83.5182 24.4689C82.2879 24.4689 81.1944 23.6532 81.1944 22.5657C81.1944 21.886 81.4678 21.3423 82.0146 21.0704H68.7555C69.3023 21.4782 69.5757 22.022 69.5757 22.5657C69.5757 23.6532 68.4822 24.4689 67.2519 24.4689C66.0217 24.4689 64.9282 23.6532 64.9282 22.5657C64.9282 21.886 65.2016 21.3423 65.7483 21.0704H56.0433L62.8778 5.57344H60.144C59.8706 5.57344 59.7339 5.57344 59.5973 5.70938C59.4606 5.84531 59.3239 5.98125 59.1872 6.11719L57.0001 11.9625C56.8634 12.3704 56.5901 12.9141 56.4534 13.3219C56.4534 13.05 56.3167 12.9141 56.3167 12.6422C56.18 12.3704 56.18 12.2344 56.0433 11.9625L53.5829 6.11719C53.5829 5.98125 53.4462 5.84531 53.3095 5.70938C53.4462 5.57344 53.3095 5.4375 53.0361 5.4375H50.0289L55.0865 16.7204L53.0361 21.0704H29.5252V37.6549C29.1152 37.6549 28.4317 37.6549 27.7483 37.6549C27.7483 37.6549 27.4749 37.6549 27.0648 37.519C26.2447 37.2471 22.2806 32.6252 18.0432 26.1001L18.1799 37.6549H15.036V21.0704H0C8.47484 69.0567 67.5253 67.0176 67.5253 67.0176C132.043 64.0269 133.274 21.0704 133.274 21.0704H117.144ZM43.4677 37.6549H41.554C41.144 37.6549 40.8706 37.519 40.7339 37.1111L40.4605 36.2955C40.1871 36.5674 39.9138 36.7033 39.7771 36.9752C39.5037 37.1111 39.2303 37.383 38.9569 37.519C38.6835 37.6549 38.4102 37.7908 38.0001 37.7908C37.7267 37.9268 37.3166 37.9268 36.9066 37.9268C36.2231 37.9268 35.6763 37.7908 35.1296 37.519C34.5828 37.2471 34.1727 36.9752 33.8994 36.5674C33.626 36.1596 33.3526 35.6158 33.0792 35.0721C32.9425 34.5283 32.8058 33.8486 32.8058 33.1689V25.4204H35.9497V33.1689C35.9497 33.8486 36.0864 34.3924 36.3598 34.8002C36.6332 35.208 37.1799 35.3439 37.7267 35.3439C38.1368 35.3439 38.5468 35.208 38.9569 35.0721C39.367 34.9361 39.7771 34.5283 40.0504 34.2564V25.4204H43.1943V37.6549H43.4677ZM53.1728 37.6549C52.626 37.7908 51.9426 37.9268 51.2591 37.9268C50.7123 37.9268 50.1656 37.7908 49.7555 37.6549C49.3454 37.519 48.9354 37.2471 48.662 36.9752C48.3886 36.7033 48.1152 36.2955 47.9785 35.8877C47.8418 35.4799 47.7051 35.0721 47.7051 34.5283V28.1392H46.4749C46.3382 28.1392 46.0648 28.1392 46.0648 28.0033C45.9282 27.8673 45.9282 27.7314 45.9282 27.4595V26.2361L47.8418 25.8283L48.5253 22.7017C48.662 22.2939 48.9354 22.1579 49.3454 22.1579H51.1224V25.8283H54.403V28.0033H51.1224V34.1205C51.1224 34.3924 51.2591 34.6643 51.3958 34.9361C51.5325 35.0721 51.8059 35.208 52.0793 35.208C52.2159 35.208 52.3526 35.208 52.4893 35.208C52.626 35.208 52.7627 35.0721 52.7627 35.0721C52.8994 35.0721 52.8994 34.9361 53.0361 34.9361C53.1728 34.9361 53.1728 34.9361 53.3095 34.9361C53.4462 34.9361 53.4462 34.9361 53.5829 34.9361C53.5829 34.9361 53.7195 35.0721 53.7195 35.208L54.8131 36.7033C54.2663 37.1111 53.7195 37.383 53.1728 37.6549ZM63.5613 28.1392C63.5613 28.2751 63.4246 28.4111 63.4246 28.4111C63.2879 28.4111 63.2879 28.547 63.1512 28.547C63.0145 28.547 62.8778 28.547 62.6045 28.547C62.3311 28.547 62.1944 28.547 61.921 28.547C61.6476 28.547 61.3742 28.547 61.1009 28.683C60.8275 28.8189 60.6908 28.9548 60.4174 29.0908C60.2807 29.2267 60.0073 29.4986 59.8706 29.6345C59.7339 29.9064 59.5973 30.1783 59.4606 30.4502V37.7908H56.18V25.8283H58.0937C58.367 25.8283 58.6404 25.8283 58.7771 25.9642C58.9138 26.1001 59.0505 26.2361 59.0505 26.5079L59.1872 27.7314C59.5973 27.0517 60.0073 26.5079 60.5541 26.1001C61.1009 25.6923 61.6476 25.5564 62.3311 25.5564C62.8778 25.5564 63.2879 25.6923 63.698 25.9642L63.5613 28.1392ZM69.3023 37.6549H65.7483V25.9642H69.3023V37.6549ZM85.4318 37.6549H82.1513V27.8673H76.6836V34.1205C76.6836 34.3924 76.8203 34.6643 76.957 34.9361C77.0937 35.0721 77.3671 35.208 77.6405 35.208C77.7772 35.208 77.9138 35.208 78.0505 35.208C78.1872 35.208 78.3239 35.0721 78.3239 35.0721C78.4606 35.0721 78.4606 34.9361 78.5973 34.9361C78.5973 34.9361 78.734 34.9361 78.8707 34.9361C79.0074 34.9361 79.0074 34.9361 79.1441 34.9361C79.1441 34.9361 79.2808 35.0721 79.2808 35.208L80.2376 36.7033C79.8275 37.1111 79.2807 37.383 78.734 37.519C78.1872 37.6549 77.5038 37.7908 76.957 37.7908C76.4102 37.7908 75.8635 37.6549 75.4534 37.519C75.0433 37.383 74.6333 37.1111 74.3599 36.8393C74.0865 36.5674 73.8131 36.1596 73.6764 35.7518C73.5397 35.3439 73.403 34.8002 73.403 34.3924V27.8673H72.1728C72.0361 27.8673 71.8994 27.8673 71.7627 27.7314C71.6261 27.5955 71.6261 27.4595 71.6261 27.1876V25.9642L73.5397 25.5564L74.2232 22.4298C74.3599 22.022 74.4966 21.886 74.9066 21.886H76.6836V25.5564H85.4318V37.6549ZM99.9211 34.2564C99.6477 35.0721 99.2376 35.6158 98.6909 36.1596C98.1441 36.7033 97.4607 37.1111 96.7772 37.383C95.9571 37.6549 95.1369 37.7908 94.1801 37.7908C93.2232 37.7908 92.4031 37.6549 91.5829 37.383C90.7628 37.1111 90.216 36.7033 89.6693 36.1596C89.1225 35.6158 88.7124 34.9361 88.439 34.2564C88.1657 33.4408 88.029 32.6252 88.029 31.6736C88.029 30.722 88.1657 29.9064 88.439 29.0908C88.7124 28.2751 89.1225 27.7314 89.6693 27.1876C90.216 26.6439 90.8995 26.2361 91.5829 25.9642C92.4031 25.6923 93.2232 25.5564 94.1801 25.5564C95.1369 25.5564 95.9571 25.6923 96.7772 25.9642C97.5973 26.2361 98.1441 26.6439 98.6909 27.1876C99.2376 27.7314 99.6477 28.4111 99.9211 29.0908C100.194 29.9064 100.331 30.722 100.331 31.6736C100.331 32.6252 100.194 33.4408 99.9211 34.2564Z" fill="white"/>
<path d="M94.0434 27.8677C93.0865 27.8677 92.4031 28.1396 91.8563 28.8192C91.4462 29.4989 91.1729 30.4505 91.1729 31.674C91.1729 32.8974 91.4462 33.849 91.8563 34.5287C92.2664 35.2084 93.0865 35.4802 94.0434 35.4802C95.0002 35.4802 95.6836 35.2084 96.0937 34.5287C96.5038 33.849 96.7772 32.8974 96.7772 31.674C96.7772 30.4505 96.5038 29.4989 96.0937 28.8192C95.6836 28.1396 95.0002 27.8677 94.0434 27.8677Z" fill="white"/>
<path d="M26.5178 21.0703H18.043L26.5178 31.9454V21.0703Z" fill="white"/>
<path d="M114 21.0703H105.662L114.137 31.9454L114 21.0703Z" fill="white"/>
</svg>
