<svg width="207" height="208" viewBox="0 0 207 208" fill="none" xmlns="http://www.w3.org/2000/svg">
<g clip-path="url(#clip0_103_48)">
<path d="M103.095 0.859375C46.157 0.859375 0 47.0174 0 103.954C0 160.892 46.157 207.049 103.095 207.049C160.033 207.049 206.19 160.892 206.19 103.954C206.19 47.0174 160.033 0.859375 103.095 0.859375ZM103.095 201.726C49.184 201.726 5.324 157.866 5.324 103.955C5.324 50.0434 49.184 6.18337 103.095 6.18337C157.007 6.18337 200.867 50.0434 200.867 103.955C200.866 157.866 157.006 201.726 103.095 201.726ZM181.999 61.8104C174.378 45.7054 161.344 32.6714 145.239 25.0504C64.983 -12.9266 -13.785 65.8434 24.19 146.099C31.811 162.204 44.845 175.238 60.95 182.859C141.206 220.835 219.976 142.066 181.999 61.8104ZM178.278 135.099L166.248 137.697L170.737 149.156L158.431 149.36L160.611 161.472L148.499 159.291L148.294 171.597L136.835 167.108L134.237 179.138L123.879 172.493L118.969 183.778L110.118 175.227L103.095 185.333L96.072 175.227L87.22 183.778L82.309 172.493L71.95 179.138L69.352 167.108L57.893 171.597L57.689 159.291L45.577 161.472L47.758 149.36L35.452 149.155L39.941 137.696L27.911 135.098L34.556 124.74L23.271 119.83L31.823 110.979L21.717 103.956L31.823 96.9334L23.271 88.0814L34.556 83.1704L27.911 72.8114L39.941 70.2134L35.453 58.7544L47.759 58.5494L45.578 46.4374L57.69 48.6184L57.894 36.3124L69.353 40.8014L71.951 28.7714L82.31 35.4164L87.22 24.1314L96.071 32.6824L103.094 22.5764L110.117 32.6824L118.969 24.1314L123.88 35.4164L134.239 28.7714L136.837 40.8014L148.296 36.3124L148.5 48.6184L160.613 46.4374L158.432 58.5494L170.738 58.7534L166.249 70.2124L178.279 72.8104L171.634 83.1684L182.919 88.0784L174.368 96.9294L184.474 103.952L174.368 110.975L182.919 119.827L171.634 124.738L178.278 135.099Z" fill="#262358"/>
<path d="M103.223 77.8267C104.999 80.9131 107.794 83.2849 111.129 84.5351C114.292 85.9298 117.822 86.2659 121.191 85.4934C120.419 88.8632 120.755 92.3924 122.15 95.5559C123.48 98.8425 125.832 101.614 128.858 103.462C126.997 104.576 125.37 106.041 124.066 107.775L131.014 114.962C131.338 113.937 131.931 113.018 132.732 112.302C133.533 111.585 134.512 111.097 135.566 110.889L145.15 108.014C146.108 107.699 146.943 107.089 147.535 106.272C148.127 105.455 148.445 104.471 148.445 103.462C148.445 102.453 148.127 101.47 147.535 100.652C146.943 99.8349 146.108 99.2251 145.15 98.9101L135.566 96.0351C134.531 95.7836 133.573 95.2803 132.779 94.5697C131.985 93.8592 131.379 92.9634 131.014 91.9621C130.584 90.9725 130.382 89.8986 130.424 88.8202C130.465 87.7419 130.749 86.6867 131.254 85.733L136.285 76.8684C136.761 75.9742 136.926 74.9467 136.752 73.9486C136.579 72.9505 136.077 72.0389 135.327 71.358C134.607 70.5882 133.654 70.0771 132.614 69.9039C131.575 69.7306 130.507 69.9049 129.577 70.3996L120.952 75.4309C119.998 75.9359 118.943 76.2197 117.865 76.2611C116.786 76.3026 115.712 76.1007 114.723 75.6705C113.721 75.3059 112.826 74.6996 112.115 73.9054C111.405 73.1113 110.901 72.1539 110.65 71.1184L107.775 61.2955C107.46 60.3368 106.85 59.5021 106.033 58.9103C105.215 58.3186 104.232 58 103.223 58C102.214 58 101.23 58.3186 100.413 58.9103C99.5954 59.5021 98.9857 60.3368 98.6706 61.2955L95.7956 71.1184C95.5441 72.1539 95.0408 73.1113 94.3302 73.9054C93.6197 74.6996 92.724 75.3059 91.7227 75.6705L98.9102 82.6184C100.644 81.3151 102.109 79.6878 103.223 77.8267Z" fill="#262358"/>
<path d="M65.8476 60.5755C64.9248 59.8835 63.7834 59.5475 62.6329 59.6292C61.4824 59.711 60.3999 60.205 59.5843 61.0206C58.7687 61.8362 58.2747 62.9187 58.1929 64.0692C58.1112 65.2197 58.4472 66.3611 59.1392 67.2839L72.0767 80.2214L75.1913 85.7318C75.6963 86.6855 75.9801 87.7407 76.0216 88.819C76.063 89.8974 75.8611 90.9713 75.4309 91.9609C75.0663 92.9623 74.46 93.858 73.6659 94.5685C72.8717 95.2791 71.9143 95.7824 70.8788 96.0339L61.2955 98.9089C60.3368 99.224 59.5021 99.8337 58.9103 100.651C58.3186 101.468 58 102.452 58 103.461C58 104.47 58.3186 105.453 58.9103 106.271C59.5021 107.088 60.3368 107.698 61.2955 108.013L70.8788 110.888C71.9143 111.139 72.8717 111.643 73.6659 112.353C74.46 113.064 75.0663 113.96 75.4309 114.961C75.8611 115.951 76.063 117.024 76.0216 118.103C75.9801 119.181 75.6963 120.236 75.1913 121.19L70.1601 130.055C69.6838 130.949 69.5195 131.976 69.6931 132.974C69.8667 133.973 70.3682 134.884 71.1184 135.565C71.8381 136.335 72.7914 136.846 73.8309 137.019C74.8704 137.192 75.938 137.018 76.8684 136.523L85.4934 131.492C86.4471 130.987 87.5023 130.703 88.5806 130.662C89.659 130.62 90.7329 130.822 91.7226 131.253C92.7239 131.617 93.6196 132.223 94.3301 133.018C95.0407 133.812 95.544 134.769 95.7955 135.805L98.6705 145.628C98.9856 146.586 99.5953 147.421 100.413 148.013C101.23 148.604 102.213 148.923 103.223 148.923C104.232 148.923 105.215 148.604 106.032 148.013C106.85 147.421 107.46 146.586 107.775 145.628L110.65 135.805C110.901 134.769 111.404 133.812 112.115 133.018C112.826 132.223 113.721 131.617 114.723 131.253C115.712 130.822 116.786 130.62 117.864 130.662C118.943 130.703 119.998 130.987 120.952 131.492L126.462 134.607L140.598 148.742C141.024 149.207 141.542 149.578 142.12 149.832C142.697 150.086 143.321 150.217 143.952 150.217C144.582 150.217 145.206 150.086 145.784 149.832C146.361 149.578 146.879 149.207 147.306 148.742C147.771 148.316 148.142 147.797 148.396 147.22C148.649 146.643 148.78 146.019 148.78 145.388C148.78 144.757 148.649 144.133 148.396 143.556C148.142 142.979 147.771 142.46 147.306 142.034L65.8476 60.5755ZM111.129 122.388C107.794 123.638 104.999 126.01 103.223 129.096C101.446 126.01 98.6508 123.638 95.3163 122.388C93.3799 121.431 91.247 120.939 89.0871 120.951L85.2538 121.43C86.0263 118.06 85.6902 114.531 84.2955 111.367C82.9651 108.081 80.6133 105.309 77.5871 103.461C80.6133 101.613 82.9651 98.8413 84.2955 95.5547C84.7475 94.9251 84.9981 94.1733 85.0142 93.3984L113.285 121.669C112.51 121.685 111.758 121.936 111.129 122.388Z" fill="#262358"/>
</g>
<defs>
<clipPath id="clip0_103_48">
<rect width="207" height="208" fill="white"/>
</clipPath>
</defs>
</svg>
